<?xml version="1.0" encoding="UTF-8" standalone="no"?>
<!-- Uploaded to: SVG Repo, www.svgrepo.com, Generator: SVG Repo Mixer Tools -->

<svg
   fill="#000000"
   width="517.5"
   height="517.5"
   viewBox="0 0 20.7 20.7"
   version="1.1"
   id="svg1"
   sodipodi:docname="bulb.svg"
   inkscape:version="1.4.3 (0d15f75, 2025-12-25)"
   inkscape:export-filename="bulb.png"
   inkscape:export-xdpi="94.980003"
   inkscape:export-ydpi="94.980003"
   xml:space="preserve"
   xmlns:inkscape="http://www.inkscape.org/namespaces/inkscape"
   xmlns:sodipodi="http://sodipodi.sourceforge.net/DTD/sodipodi-0.dtd"
   xmlns="http://www.w3.org/2000/svg"
   xmlns:svg="http://www.w3.org/2000/svg"
   xmlns:rdf="http://www.w3.org/1999/02/22-rdf-syntax-ns#"
   xmlns:cc="http://creativecommons.org/ns#"
   xmlns:dc="http://purl.org/dc/elements/1.1/"><defs
     id="defs1" /><sodipodi:namedview
     id="namedview1"
     pagecolor="#404040"
     bordercolor="#000000"
     borderopacity="0.25"
     inkscape:showpageshadow="2"
     inkscape:pageopacity="0.0"
     inkscape:pagecheckerboard="true"
     inkscape:deskcolor="#101010"
     inkscape:zoom="1.1075"
     inkscape:cx="266.81716"
     inkscape:cy="280.81264"
     inkscape:window-width="1810"
     inkscape:window-height="1177"
     inkscape:window-x="1379"
     inkscape:window-y="71"
     inkscape:window-maximized="0"
     inkscape:current-layer="svg1" /><title
     id="title1">pause</title><metadata
     id="metadata1"><rdf:RDF><cc:Work
         rdf:about=""><dc:title>pause</dc:title></cc:Work></rdf:RDF></metadata><circle
     style="fill:#ffffff;stroke:none;stroke-width:0.22;fill-opacity:1"
     id="path2"
     cx="10.349999"
     cy="10.349999"
     r="10.24" /><g
     style="fill:#000000"
     id="g4"
     transform="matrix(0.03122044,0,0,0.03122044,2.3575674,2.8570944)"><path
       d="m 288,464 h -64 a 16,16 0 0 0 0,32 h 64 a 16,16 0 0 0 0,-32 z"
       id="path1"
       style="fill:#f28c4c;fill-opacity:1" /><path
       d="m 304,416 h -96 a 16,16 0 0 0 0,32 h 96 a 16,16 0 0 0 0,-32 z"
       id="path2-1"
       style="fill:#f28c4c;fill-opacity:1" /><path
       d="M 369.42,62.69 C 339.35,32.58 299.07,16 256,16 A 159.62,159.62 0 0 0 96,176 c 0,46.62 17.87,90.23 49,119.64 l 4.36,4.09 C 167.37,316.57 192,339.64 192,360 v 24 a 16,16 0 0 0 16,16 h 24 a 8,8 0 0 0 8,-8 V 274.82 a 8,8 0 0 0 -5.13,-7.47 130.73,130.73 0 0 1 -26.16,-14.35 16,16 0 1 1 18.58,-26 c 7.4,5.24 21.65,13 28.71,13 7.06,0 21.31,-7.78 28.73,-13 a 16,16 0 0 1 18.56,26 130.73,130.73 0 0 1 -26.16,14.32 8,8 0 0 0 -5.13,7.47 V 392 a 8,8 0 0 0 8,8 h 24 a 16,16 0 0 0 16,-16 v -24 c 0,-19.88 24.36,-42.93 42.15,-59.77 l 4.91,-4.66 C 399.08,265 416,223.61 416,176 A 159.16,159.16 0 0 0 369.42,62.69 Z"
       id="path3"
       style="fill:#f28c4c;fill-opacity:1" /></g></svg>
