<?xml version="1.0" encoding="UTF-8" standalone="no"?>
<!-- Uploaded to: SVG Repo, www.svgrepo.com, Generator: SVG Repo Mixer Tools -->

<svg
   fill="#000000"
   width="517.5"
   height="517.5"
   viewBox="0 0 20.7 20.7"
   version="1.1"
   id="svg1"
   sodipodi:docname="clock.svg"
   inkscape:version="1.4.3 (0d15f75, 2025-12-25)"
   inkscape:export-filename="clock.png"
   inkscape:export-xdpi="94.980003"
   inkscape:export-ydpi="94.980003"
   xml:space="preserve"
   xmlns:inkscape="http://www.inkscape.org/namespaces/inkscape"
   xmlns:sodipodi="http://sodipodi.sourceforge.net/DTD/sodipodi-0.dtd"
   xmlns="http://www.w3.org/2000/svg"
   xmlns:svg="http://www.w3.org/2000/svg"
   xmlns:rdf="http://www.w3.org/1999/02/22-rdf-syntax-ns#"
   xmlns:cc="http://creativecommons.org/ns#"
   xmlns:dc="http://purl.org/dc/elements/1.1/"><defs
     id="defs1" /><sodipodi:namedview
     id="namedview1"
     pagecolor="#404040"
     bordercolor="#000000"
     borderopacity="0.25"
     inkscape:showpageshadow="2"
     inkscape:pageopacity="0.0"
     inkscape:pagecheckerboard="true"
     inkscape:deskcolor="#101010"
     inkscape:zoom="1.1075"
     inkscape:cx="267.72009"
     inkscape:cy="280.81264"
     inkscape:window-width="1810"
     inkscape:window-height="1177"
     inkscape:window-x="1562"
     inkscape:window-y="294"
     inkscape:window-maximized="0"
     inkscape:current-layer="svg1" /><title
     id="title1">pause</title><metadata
     id="metadata1"><rdf:RDF><cc:Work
         rdf:about=""><dc:title>pause</dc:title></cc:Work></rdf:RDF></metadata><circle
     style="fill:#ffffff;stroke:none;stroke-width:0.22;fill-opacity:1"
     id="path2"
     cx="10.349999"
     cy="10.349999"
     r="10.24" /><g
     style="fill:#f28c4c;fill-opacity:1"
     id="g1"
     transform="matrix(0.67866594,0,0,0.67866594,2.2060081,2.2060087)"><path
       d="M 23,12 C 23,18.0751 18.0751,23 12,23 5.92487,23 1,18.0751 1,12 1,5.92487 5.92487,1 12,1 18.0751,1 23,5.92487 23,12 Z M 3.00683,12 c 0,4.9668 4.02638,8.9932 8.99317,8.9932 4.9668,0 8.9932,-4.0264 8.9932,-8.9932 C 20.9932,7.03321 16.9668,3.00683 12,3.00683 7.03321,3.00683 3.00683,7.03321 3.00683,12 Z"
       fill="#0f0f0f"
       id="path1-3"
       style="fill:#f28c4c;fill-opacity:1" /><path
       d="m 12,5 c -0.5523,0 -1,0.44771 -1,1 v 6.4667 c 0,0 0,0.2607 0.1267,0.4568 0.0848,0.1663 0.217,0.3108 0.3907,0.4111 l 4.6198,2.6673 c 0.4783,0.2761 1.0899,0.1122 1.366,-0.3661 0.2761,-0.4783 0.1123,-1.0899 -0.366,-1.366 L 13,11.8812 V 6 C 13,5.44772 12.5523,5 12,5 Z"
       fill="#0f0f0f"
       id="path2-6"
       style="fill:#f28c4c;fill-opacity:1" /></g></svg>
