<?xml version="1.0" encoding="UTF-8" standalone="no"?>
<svg
   width="53"
   height="54"
   viewBox="0 0 53 54"
   fill="none"
   version="1.1"
   id="svg6"
   sodipodi:docname="Group 1000007466.svg"
   inkscape:export-filename="Group 1000007466.png"
   inkscape:export-xdpi="1200"
   inkscape:export-ydpi="1200"
   inkscape:version="1.4.3 (0d15f75, 2025-12-25)"
   xmlns:inkscape="http://www.inkscape.org/namespaces/inkscape"
   xmlns:sodipodi="http://sodipodi.sourceforge.net/DTD/sodipodi-0.dtd"
   xmlns="http://www.w3.org/2000/svg"
   xmlns:svg="http://www.w3.org/2000/svg">
  <defs
     id="defs6" />
  <sodipodi:namedview
     id="namedview6"
     pagecolor="#414141"
     bordercolor="#000000"
     borderopacity="0.25"
     inkscape:showpageshadow="2"
     inkscape:pageopacity="0.0"
     inkscape:pagecheckerboard="true"
     inkscape:deskcolor="#0c0c0c"
     inkscape:zoom="16.716981"
     inkscape:cx="26.47009"
     inkscape:cy="27.008465"
     inkscape:window-width="1614"
     inkscape:window-height="1214"
     inkscape:window-x="1681"
     inkscape:window-y="91"
     inkscape:window-maximized="0"
     inkscape:current-layer="svg6" />
  <path
     d="M 23.9115,1.77963 C 25.8778,1.43849 27.894,1.40698 29.8679,1.70065 43.0678,3.66445 49.7072,11.8871 51.5,25.1548 c 0,14.9813 -7.6923,26.2173 -7.6923,26.2173 -3.8462,-3.7453 -7.6923,-3.7453 -11.5385,0 -3.8461,-3.7453 -7.6923,-3.7453 -11.5384,0 -3.8462,-3.7453 -7.6923,-3.7453 -11.53849,0 C 4.0641,43.8814 1.5,35.1424 1.5,25.1548 2.75253,11.9124 10.9976,4.02015 23.9115,1.77963 Z"
     fill="#eaf6ff"
     stroke="#b3d7f5"
     stroke-width="3"
     id="path1"
     style="display:inline" />
  <path
     d="M13.9591 25.9048C16.5081 25.9048 18.5745 23.8926 18.5745 21.4104C18.5745 18.9282 16.5081 16.916 13.9591 16.916C11.4101 16.916 9.34375 18.9282 9.34375 21.4104C9.34375 23.8926 11.4101 25.9048 13.9591 25.9048Z"
     fill="#2C3E50"
     id="path2" />
  <path
     d="M33.1974 25.9048C35.7464 25.9048 37.8128 23.8926 37.8128 21.4104C37.8128 18.9282 35.7464 16.916 33.1974 16.916C30.6484 16.916 28.582 18.9282 28.582 21.4104C28.582 23.8926 30.6484 25.9048 33.1974 25.9048Z"
     fill="#2C3E50"
     id="path3" />
  <path
     d="M15.8822 21.0353C16.7319 21.0353 17.4207 20.3646 17.4207 19.5372C17.4207 18.7098 16.7319 18.0391 15.8822 18.0391C15.0325 18.0391 14.3438 18.7098 14.3438 19.5372C14.3438 20.3646 15.0325 21.0353 15.8822 21.0353Z"
     fill="white"
     id="path4" />
  <path
     d="M35.1205 21.0353C35.9702 21.0353 36.659 20.3646 36.659 19.5372C36.659 18.7098 35.9702 18.0391 35.1205 18.0391C34.2708 18.0391 33.582 18.7098 33.582 19.5372C33.582 20.3646 34.2708 21.0353 35.1205 21.0353Z"
     fill="white"
     id="path5" />
  <path
     d="M15.8828 32.6445C21.011 37.6383 26.1392 37.6383 31.2674 32.6445"
     stroke="#2C3E50"
     stroke-width="4"
     stroke-linecap="round"
     id="path6" />
</svg>
