<?xml version="1.0" encoding="UTF-8" standalone="no"?>
<!-- Uploaded to: SVG Repo, www.svgrepo.com, Generator: SVG Repo Mixer Tools -->

<svg
   fill="#000000"
   width="517.5"
   height="517.5"
   viewBox="0 0 20.7 20.7"
   version="1.1"
   id="svg1"
   sodipodi:docname="left-right-arrows.svg"
   inkscape:version="1.4.3 (0d15f75, 2025-12-25)"
   inkscape:export-filename="left-right-arrows.png"
   inkscape:export-xdpi="94.980003"
   inkscape:export-ydpi="94.980003"
   xml:space="preserve"
   xmlns:inkscape="http://www.inkscape.org/namespaces/inkscape"
   xmlns:sodipodi="http://sodipodi.sourceforge.net/DTD/sodipodi-0.dtd"
   xmlns="http://www.w3.org/2000/svg"
   xmlns:svg="http://www.w3.org/2000/svg"
   xmlns:rdf="http://www.w3.org/1999/02/22-rdf-syntax-ns#"
   xmlns:cc="http://creativecommons.org/ns#"
   xmlns:dc="http://purl.org/dc/elements/1.1/"><defs
     id="defs1" /><sodipodi:namedview
     id="namedview1"
     pagecolor="#404040"
     bordercolor="#000000"
     borderopacity="0.25"
     inkscape:showpageshadow="2"
     inkscape:pageopacity="0.0"
     inkscape:pagecheckerboard="true"
     inkscape:deskcolor="#101010"
     inkscape:zoom="1.5662415"
     inkscape:cx="248.36527"
     inkscape:cy="237.8305"
     inkscape:window-width="1857"
     inkscape:window-height="1140"
     inkscape:window-x="8"
     inkscape:window-y="147"
     inkscape:window-maximized="0"
     inkscape:current-layer="svg1" /><title
     id="title1">pause</title><metadata
     id="metadata1"><rdf:RDF><cc:Work
         rdf:about=""><dc:title>pause</dc:title></cc:Work></rdf:RDF></metadata><g
     style="fill:#000000"
     id="g1"
     transform="matrix(0,1.3738353,-1.3738353,0,24.764967,-6.1360236)"><path
       id="secondary"
       d="M 11.31,4.37 9.17,7.5 A 1,1 0 0 0 9.86,9 h 4.28 A 1,1 0 0 0 14.83,7.5 L 12.69,4.37 a 0.82,0.82 0 0 0 -1.38,0 z"
       style="fill:#f28c4c;fill-opacity:1;stroke:#f28c4c;stroke-width:2;stroke-linecap:round;stroke-linejoin:round;stroke-opacity:1" /><path
       id="primary"
       d="m 12.69,16.615 2.14,-3.12 a 1,1 0 0 0 -0.69,-1.5 H 9.86 a 1,1 0 0 0 -0.69,1.5 l 2.14,3.12 a 0.82,0.82 0 0 0 1.38,0 z"
       style="fill:#f28c4c;fill-opacity:1;stroke:#f28c4c;stroke-width:2;stroke-linecap:round;stroke-linejoin:round;stroke-opacity:1" /></g></svg>
