<?xml version="1.0" encoding="UTF-8" standalone="no"?>
<!-- Uploaded to: SVG Repo, www.svgrepo.com, Generator: SVG Repo Mixer Tools -->

<svg
   fill="#000000"
   width="517.5"
   height="517.5"
   viewBox="0 0 20.7 20.7"
   version="1.1"
   id="svg1"
   sodipodi:docname="play.svg"
   inkscape:version="1.4.3 (0d15f75, 2025-12-25)"
   inkscape:export-filename="play.png"
   inkscape:export-xdpi="94.980003"
   inkscape:export-ydpi="94.980003"
   xml:space="preserve"
   xmlns:inkscape="http://www.inkscape.org/namespaces/inkscape"
   xmlns:sodipodi="http://sodipodi.sourceforge.net/DTD/sodipodi-0.dtd"
   xmlns="http://www.w3.org/2000/svg"
   xmlns:svg="http://www.w3.org/2000/svg"
   xmlns:rdf="http://www.w3.org/1999/02/22-rdf-syntax-ns#"
   xmlns:cc="http://creativecommons.org/ns#"
   xmlns:dc="http://purl.org/dc/elements/1.1/"><defs
     id="defs1" /><sodipodi:namedview
     id="namedview1"
     pagecolor="#404040"
     bordercolor="#000000"
     borderopacity="0.25"
     inkscape:showpageshadow="2"
     inkscape:pageopacity="0.0"
     inkscape:pagecheckerboard="true"
     inkscape:deskcolor="#101010"
     inkscape:zoom="1.1075"
     inkscape:cx="399.54853"
     inkscape:cy="400"
     inkscape:window-width="3440"
     inkscape:window-height="1371"
     inkscape:window-x="0"
     inkscape:window-y="32"
     inkscape:window-maximized="1"
     inkscape:current-layer="svg1" /><title
     id="title1">pause</title><metadata
     id="metadata1"><rdf:RDF><cc:Work
         rdf:about=""><dc:title>pause</dc:title></cc:Work></rdf:RDF></metadata><circle
     style="fill:#ffffff;stroke:none;stroke-width:0.22;fill-opacity:1"
     id="path2"
     cx="10.349999"
     cy="10.349999"
     r="10.24" /><path
     d="m 4.6940653,14.847504 q 0,0.458156 0.3176639,0.775342 0.3176639,0.317186 0.7941598,0.334807 h 2.2236466 q 0.4588482,0 0.7941605,-0.334807 0.3353118,-0.334807 0.3176638,-0.775342 V 5.9486832 q 0,-0.458157 -0.3176638,-0.7929641 Q 8.5060316,4.8209121 8.0295356,4.8385335 H 5.805889 q -0.458848,0 -0.7941598,0.3171856 -0.3353119,0.3171856 -0.3176639,0.7929641 z m 6.6709397,0 q 0,0.458156 0.335312,0.775342 0.335313,0.317186 0.776513,0.334807 h 2.223647 q 0.458847,0 0.794159,-0.334807 0.335312,-0.334807 0.317664,-0.775342 V 5.9486832 q 0,-0.458157 -0.317664,-0.7929641 -0.317663,-0.334807 -0.794159,-0.3171856 H 12.47683 q -0.458848,0 -0.776513,0.3171856 -0.317663,0.3171856 -0.335312,0.7929641 z"
     id="path1"
     style="display:none;stroke-width:0.551085" /><g
     style="fill:none"
     id="g1"
     transform="matrix(1.3333333,0,0,1.3333333,-5.63156,-5.6019049)"><path
       d="m 16.008118,10.825652 c 0.941236,0.511858 0.941236,1.836837 0,2.348686 l -5.683161,3.090478 C 9.4101714,16.762293 8.2859799,16.114797 8.2859799,15.090478 V 8.9095204 c 0,-1.024328 1.1241915,-1.6718066 2.0389721,-1.1743473 z"
       stroke="#1c274c"
       stroke-width="0.665373"
       id="path1-5"
       style="fill:#f28c4c;fill-opacity:1;stroke:none" /></g></svg>
