<?xml version="1.0" encoding="UTF-8" standalone="no"?>
<!-- Uploaded to: SVG Repo, www.svgrepo.com, Generator: SVG Repo Mixer Tools -->

<svg
   fill="#000000"
   width="517.5"
   height="517.5"
   viewBox="0 0 20.7 20.7"
   version="1.1"
   id="svg1"
   sodipodi:docname="reset.svg"
   inkscape:version="1.4.3 (0d15f75, 2025-12-25)"
   inkscape:export-filename="reset.png"
   inkscape:export-xdpi="94.980003"
   inkscape:export-ydpi="94.980003"
   xml:space="preserve"
   xmlns:inkscape="http://www.inkscape.org/namespaces/inkscape"
   xmlns:sodipodi="http://sodipodi.sourceforge.net/DTD/sodipodi-0.dtd"
   xmlns="http://www.w3.org/2000/svg"
   xmlns:svg="http://www.w3.org/2000/svg"
   xmlns:rdf="http://www.w3.org/1999/02/22-rdf-syntax-ns#"
   xmlns:cc="http://creativecommons.org/ns#"
   xmlns:dc="http://purl.org/dc/elements/1.1/"><defs
     id="defs1" /><sodipodi:namedview
     id="namedview1"
     pagecolor="#404040"
     bordercolor="#000000"
     borderopacity="0.25"
     inkscape:showpageshadow="2"
     inkscape:pageopacity="0.0"
     inkscape:pagecheckerboard="true"
     inkscape:deskcolor="#101010"
     inkscape:zoom="1.1075"
     inkscape:cx="266.81716"
     inkscape:cy="280.81264"
     inkscape:window-width="1810"
     inkscape:window-height="1177"
     inkscape:window-x="1379"
     inkscape:window-y="71"
     inkscape:window-maximized="0"
     inkscape:current-layer="svg1" /><title
     id="title1">pause</title><metadata
     id="metadata1"><rdf:RDF><cc:Work
         rdf:about=""><dc:title>pause</dc:title></cc:Work></rdf:RDF></metadata><circle
     style="fill:#ffffff;stroke:none;stroke-width:0.22;fill-opacity:1"
     id="path2"
     cx="10.349999"
     cy="10.349999"
     r="10.24" /><g
     style="fill:#f28c4c;fill-opacity:1"
     id="g3"
     transform="matrix(0.00677271,0,0,0.00677271,3.8481984,3.8481978)"><path
       d="m 960,0 v 213.333 c 411.627,0 746.667,334.934 746.667,746.667 0,411.733 -335.04,746.667 -746.667,746.667 -411.627,0 -746.667,-334.934 -746.667,-746.667 0,-197.013 78.4,-382.507 213.334,-520.747 v 254.08 H 640 V 106.667 H 53.333 V 320 h 191.04 C 88.64,494.08 0,720.96 0,960 c 0,529.28 430.613,960 960,960 529.387,0 960,-430.72 960,-960 C 1920,430.72 1489.387,0 960,0"
       fill-rule="evenodd"
       id="path1-2"
       style="fill:#f28c4c;fill-opacity:1" /></g></svg>
