<?xml version="1.0" encoding="UTF-8" standalone="no"?>
<!-- Created with Inkscape (http://www.inkscape.org/) -->

<svg
   width="81.00708"
   height="69.525078"
   viewBox="0 0 81.00708 69.525078"
   version="1.1"
   id="svg1"
   xml:space="preserve"
   inkscape:version="1.4.3 (0d15f75, 2025-12-25)"
   sodipodi:docname="sector 1 main image.svg"
   inkscape:export-filename="sector 1 main image.png"
   inkscape:export-xdpi="1200"
   inkscape:export-ydpi="1200"
   xmlns:inkscape="http://www.inkscape.org/namespaces/inkscape"
   xmlns:sodipodi="http://sodipodi.sourceforge.net/DTD/sodipodi-0.dtd"
   xmlns="http://www.w3.org/2000/svg"
   xmlns:svg="http://www.w3.org/2000/svg"><sodipodi:namedview
     id="namedview1"
     pagecolor="#505050"
     bordercolor="#ffffff"
     borderopacity="1"
     inkscape:showpageshadow="0"
     inkscape:pageopacity="0"
     inkscape:pagecheckerboard="1"
     inkscape:deskcolor="#505050"
     inkscape:document-units="px"
     showguides="true"
     inkscape:zoom="2.8284271"
     inkscape:cx="82.908271"
     inkscape:cy="56.568543"
     inkscape:window-width="3440"
     inkscape:window-height="1371"
     inkscape:window-x="0"
     inkscape:window-y="32"
     inkscape:window-maximized="1"
     inkscape:current-layer="layer1"><inkscape:page
       x="0"
       y="0"
       width="81.00708"
       height="69.525078"
       id="page2"
       margin="0"
       bleed="0" /></sodipodi:namedview><defs
     id="defs1"><inkscape:path-effect
       effect="fillet_chamfer"
       id="path-effect26"
       is_visible="true"
       lpeversion="1"
       nodesatellites_param="F,0,0,1,0,1.5708166,0,1 @ F,0,0,1,0,2.0562295,0,1 @ F,0,0,1,0,2.3186433,0,1 @ F,0,0,1,0,4.3801883,0,1 @ F,0,0,1,0,2.0810092,0,1 @ F,0,0,1,0,0,0,1 @ F,0,0,1,0,1.481567,0,1 @ F,0,0,1,0,2.2092785,0,1"
       radius="0"
       unit="px"
       method="auto"
       mode="F"
       chamfer_steps="1"
       flexible="false"
       use_knot_distance="true"
       apply_no_radius="true"
       apply_with_radius="true"
       only_selected="false"
       hide_knots="false" /></defs><g
     inkscape:label="Layer 1"
     inkscape:groupmode="layer"
     id="layer1"
     transform="translate(-344.9834,-112.73226)"><g
       id="g24"
       transform="translate(56.539876,-170.24785)"><path
         style="fill:#c5bbd0;fill-opacity:0.100619;fill-rule:nonzero;stroke:#ffffff;stroke-width:1.49975;stroke-dasharray:none;stroke-opacity:1"
         d="m 333.4162,281.47453 c -16.04224,7.49392 -30.88546,16.73925 -45.5857,26.48998 -0.94626,0.62766 -1.29743,1.96129 -0.71969,2.93874 2.36965,4.00906 5.83732,8.20627 8.3556,11.1188 0.8374,0.9685 2.2733,2.46553 3.1996,3.34972 6.73764,6.43133 11.25349,10.38877 20.24943,15.61308 2.09184,1.21482 5.58919,2.99023 7.81548,3.93631 15.39371,6.54164 29.25491,8.39006 41.91659,7.78259 1.14796,-0.0551 1.93631,-1.04304 1.76229,-2.1791 l -3.90615,-25.50112 -4.41741,-27.98218 a 2.2371525,2.2371525 47.514277 0 0 -1.66859,-1.82185 l -12.40314,-3.09234 a 8.148179,8.148179 29.169846 0 1 -3.72374,-2.07856 l -8.3256,-8.13601 c -0.62046,-0.60634 -1.76296,-0.80523 -2.54897,-0.43806 z"
         id="path25"
         inkscape:path-effect="#path-effect26"
         inkscape:original-d="m 334.84172,280.81472 c -17.21609,7.89467 -33.02793,17.83054 -48.72337,28.28807 2.73735,5.38789 8.13585,11.55249 10.87319,14.66515 8.65753,8.31201 13.25376,12.54268 25.74169,19.36373 17.86408,8.40056 33.6965,10.44333 47.99166,9.45 l -4.22124,-27.55814 -4.64844,-29.44562 -15.98436,-3.98521 z"
         sodipodi:nodetypes="ccccccccc"
         transform="matrix(0.95179775,0,0,0.95179775,16.160616,15.985495)" /></g></g></svg>
