<?xml version="1.0" encoding="UTF-8" standalone="no"?>
<!-- Created with Inkscape (http://www.inkscape.org/) -->

<svg
   width="81.00708"
   height="69.525078"
   viewBox="0 0 81.00708 69.525078"
   version="1.1"
   id="svg1"
   xml:space="preserve"
   inkscape:version="1.4.3 (0d15f75, 2025-12-25)"
   sodipodi:docname="sector 1 finished image.svg"
   inkscape:export-filename="sector 1 finished image.png"
   inkscape:export-xdpi="1200"
   inkscape:export-ydpi="1200"
   xmlns:inkscape="http://www.inkscape.org/namespaces/inkscape"
   xmlns:sodipodi="http://sodipodi.sourceforge.net/DTD/sodipodi-0.dtd"
   xmlns:xlink="http://www.w3.org/1999/xlink"
   xmlns="http://www.w3.org/2000/svg"
   xmlns:svg="http://www.w3.org/2000/svg"><sodipodi:namedview
     id="namedview1"
     pagecolor="#505050"
     bordercolor="#ffffff"
     borderopacity="1"
     inkscape:showpageshadow="0"
     inkscape:pageopacity="0"
     inkscape:pagecheckerboard="1"
     inkscape:deskcolor="#505050"
     inkscape:document-units="px"
     showguides="true"
     inkscape:zoom="11.313708"
     inkscape:cx="26.560699"
     inkscape:cy="28.991378"
     inkscape:window-width="3440"
     inkscape:window-height="1371"
     inkscape:window-x="0"
     inkscape:window-y="32"
     inkscape:window-maximized="1"
     inkscape:current-layer="g13"><inkscape:page
       x="0"
       y="0"
       width="81.00708"
       height="69.525078"
       id="page2"
       margin="0"
       bleed="0" /></sodipodi:namedview><defs
     id="defs1"><pattern
       inkscape:collect="always"
       xlink:href="#halftones"
       preserveAspectRatio="xMidYMid"
       id="pattern12"
       patternTransform="matrix(0.4330127,0.25,-0.25,0.4330127,0,0)"
       x="0"
       y="0" /><pattern
       patternUnits="userSpaceOnUse"
       width="10"
       height="10"
       preserveAspectRatio="xMidYMid"
       style="fill:#ffffff"
       id="halftones"
       x="0"
       y="0"
       inkscape:label="Halftones"
       inkscape:collect="always"
       inkscape:isstock="true"><g
         id="fullPattern"
         style="display:inline"
         transform="scale(0.1)"><circle
           style="fill-opacity:1;stroke:none;paint-order:markers fill stroke;stop-color:#000000"
           id="circle10"
           cx="50"
           cy="50"
           r="25" /><path
           id="circle37"
           style="paint-order:markers fill stroke"
           d="M 25,0 A 25,25 0 0 1 0,25 25,25 0 0 1 -25,0 25,25 0 0 1 0,-25 25,25 0 0 1 25,0 Z" /><path
           id="circle39"
           style="paint-order:markers fill stroke"
           d="M 125,0 A 25,25 0 0 1 100,25 25,25 0 0 1 75,0 25,25 0 0 1 100,-25 25,25 0 0 1 125,0 Z" /><path
           id="circle43"
           style="paint-order:markers fill stroke"
           d="M 25,100 A 25,25 0 0 1 0,125 25,25 0 0 1 -25,100 25,25 0 0 1 0,75 25,25 0 0 1 25,100 Z" /><path
           id="circle45"
           style="paint-order:markers fill stroke"
           d="m 125,100 a 25,25 0 0 1 -25,25 25,25 0 0 1 -25,-25 25,25 0 0 1 25,-25 25,25 0 0 1 25,25 z" /></g></pattern><clipPath
       clipPathUnits="userSpaceOnUse"
       id="clipPath5"><path
         id="path5"
         style="stroke-width:0.1;stroke-linecap:square;paint-order:markers fill stroke;stop-color:#000000"
         d="m -880.82767,-187.29769 h 1640.84 v 73.28155 h -1640.84 z" /></clipPath><clipPath
       clipPathUnits="userSpaceOnUse"
       id="clipPath52"><path
         id="path52"
         style="stroke-width:0.1;stroke-linecap:square;paint-order:markers fill stroke;stop-color:#000000"
         d="m -880.82767,-187.29769 h 1640.84 v 73.28155 h -1640.84 z" /></clipPath><inkscape:path-effect
       effect="fillet_chamfer"
       id="path-effect26"
       is_visible="true"
       lpeversion="1"
       nodesatellites_param="F,0,0,1,0,1.5708166,0,1 @ F,0,0,1,0,2.0562295,0,1 @ F,0,0,1,0,2.3186433,0,1 @ F,0,0,1,0,4.3801883,0,1 @ F,0,0,1,0,2.0810092,0,1 @ F,0,0,1,0,0,0,1 @ F,0,0,1,0,1.481567,0,1 @ F,0,0,1,0,2.2092785,0,1"
       radius="0"
       unit="px"
       method="auto"
       mode="F"
       chamfer_steps="1"
       flexible="false"
       use_knot_distance="true"
       apply_no_radius="true"
       apply_with_radius="true"
       only_selected="false"
       hide_knots="false" /><clipPath
       clipPathUnits="userSpaceOnUse"
       id="clipPath13"><use
         x="0"
         y="0"
         xlink:href="#g12"
         id="use13" /></clipPath></defs><g
     inkscape:label="Layer 1"
     inkscape:groupmode="layer"
     id="layer1"
     transform="translate(-344.9834,-112.73226)"><g
       id="g24"
       transform="translate(56.539876,-170.24785)"><g
         id="g13"
         clip-path="url(#clipPath13)"><g
           inkscape:label="Clip"
           id="g12"><path
             style="display:inline;fill:none;fill-opacity:1;fill-rule:nonzero;stroke:none;stroke-width:1.49975;stroke-dasharray:none;stroke-opacity:1"
             d="m 333.4162,281.47453 c -16.04224,7.49392 -30.88546,16.73925 -45.5857,26.48998 -0.94626,0.62766 -1.29743,1.96129 -0.71969,2.93874 2.36965,4.00906 5.83732,8.20627 8.3556,11.1188 0.8374,0.9685 2.2733,2.46553 3.1996,3.34972 6.73764,6.43133 11.25349,10.38877 20.24943,15.61308 2.09184,1.21482 5.58919,2.99023 7.81548,3.93631 15.39371,6.54164 29.25491,8.39006 41.91659,7.78259 1.14796,-0.0551 1.93631,-1.04304 1.76229,-2.1791 l -3.90615,-25.50112 -4.41741,-27.98218 a 2.2371525,2.2371525 47.514277 0 0 -1.66859,-1.82185 l -12.40314,-3.09234 a 8.148179,8.148179 29.169846 0 1 -3.72374,-2.07856 l -8.3256,-8.13601 c -0.62046,-0.60634 -1.76296,-0.80523 -2.54897,-0.43806 z"
             id="path25"
             inkscape:path-effect="#path-effect26"
             inkscape:original-d="m 334.84172,280.81472 c -17.21609,7.89467 -33.02793,17.83054 -48.72337,28.28807 2.73735,5.38789 8.13585,11.55249 10.87319,14.66515 8.65753,8.31201 13.25376,12.54268 25.74169,19.36373 17.86408,8.40056 33.6965,10.44333 47.99166,9.45 l -4.22124,-27.55814 -4.64844,-29.44562 -15.98436,-3.98521 z"
             sodipodi:nodetypes="ccccccccc"
             transform="matrix(0.95179775,0,0,0.95179775,16.160616,15.985495)" /></g><rect
           style="fill:url(#pattern12);stroke:none;stroke-width:5.5;stroke-opacity:1;opacity:0.5"
           id="rect1"
           width="81.00708"
           height="69.525078"
           x="344.9834"
           y="112.73226"
           transform="translate(-56.539876,170.24785)" /></g></g></g></svg>
