<?xml version="1.0" encoding="UTF-8" standalone="no"?>
<!-- Created with Inkscape (http://www.inkscape.org/) -->

<svg
   width="105.39114"
   height="67.24501"
   viewBox="0 0 105.39114 67.24501"
   version="1.1"
   id="svg1"
   xml:space="preserve"
   inkscape:version="1.4.3 (0d15f75, 2025-12-25)"
   sodipodi:docname="sector 4 main image.svg"
   inkscape:export-filename="sector 4 main image.png"
   inkscape:export-xdpi="1200"
   inkscape:export-ydpi="1200"
   xmlns:inkscape="http://www.inkscape.org/namespaces/inkscape"
   xmlns:sodipodi="http://sodipodi.sourceforge.net/DTD/sodipodi-0.dtd"
   xmlns="http://www.w3.org/2000/svg"
   xmlns:svg="http://www.w3.org/2000/svg"><sodipodi:namedview
     id="namedview1"
     pagecolor="#505050"
     bordercolor="#ffffff"
     borderopacity="1"
     inkscape:showpageshadow="0"
     inkscape:pageopacity="0"
     inkscape:pagecheckerboard="1"
     inkscape:deskcolor="#505050"
     inkscape:document-units="px"
     showguides="true"
     inkscape:zoom="2.8284271"
     inkscape:cx="133.81996"
     inkscape:cy="60.104077"
     inkscape:window-width="3440"
     inkscape:window-height="1371"
     inkscape:window-x="0"
     inkscape:window-y="32"
     inkscape:window-maximized="1"
     inkscape:current-layer="layer1"><inkscape:page
       x="0"
       y="0"
       width="105.39114"
       height="67.24501"
       id="page2"
       margin="0"
       bleed="0" /></sodipodi:namedview><defs
     id="defs1"><inkscape:path-effect
       effect="fillet_chamfer"
       id="path-effect1"
       is_visible="true"
       lpeversion="1"
       nodesatellites_param="F,0,0,1,0,1.8752958,0,1 @ F,0,0,1,0,1.3664707,0,1 @ F,0,0,1,0,1.3240338,0,1 @ F,0,1,1,0,1.3240338,0,1 @ F,0,0,1,0,1.3664707,0,1 @ F,0,0,1,0,2.8454499,0,1 @ F,0,0,1,0,1.8707755,0,1 @ F,0,0,1,0,4.4326102,0,1 @ F,0,0,1,0,4.1208777,0,1"
       radius="0"
       unit="px"
       method="auto"
       mode="F"
       chamfer_steps="1"
       flexible="false"
       use_knot_distance="true"
       apply_no_radius="true"
       apply_with_radius="true"
       only_selected="false"
       hide_knots="false" /></defs><g
     inkscape:label="Layer 1"
     inkscape:groupmode="layer"
     id="layer1"
     transform="translate(-352.61247,-4.5832276)"><g
       id="g24"
       transform="translate(56.539876,-170.24785)"><path
         style="opacity:1;fill:#c5bbd0;fill-opacity:0.100619;stroke:#ffffff;stroke-width:1.5;stroke-dasharray:none;stroke-opacity:1"
         d="m 400.61708,186.17191 -16.39415,51.45472 a 1.395023,1.395023 152.08018 0 1 -1.72511,0.91416 l -4.62726,-1.36958 a 78.029058,78.029058 17.459928 0 1 -2.5257,-0.79441 l -13.77389,-4.59053 a 3.3039023,3.3039023 176.59369 0 0 -2.45369,0.14605 l -19.66291,9.2714 a 1.3098808,1.3098808 20.966623 0 1 -1.76598,-0.67671 L 332.019,227.05459 a 7.9799785,7.9799785 47.553035 0 0 -3.61773,-3.9554 l -30.78899,-16.3213 c -0.91287,-0.48391 -1.05601,-1.46378 -0.3197,-2.18859 8.57418,-8.44026 12.83792,-12.56071 23.91912,-18.80771 2.13244,-1.20216 5.72748,-2.87342 8.02101,-3.72927 16.89882,-6.30592 27.37904,-7.19367 41.69981,-6.04705 2.2686,0.18163 5.92326,0.68016 8.15498,1.12615 8.98236,1.79506 13.85541,3.65746 20.38144,6.50071 0.94948,0.41367 1.46256,1.55297 1.14814,2.53978 z"
         id="path1"
         inkscape:path-effect="#path-effect1"
         inkscape:original-d="m 401.18638,184.38512 -17.37828,54.54349 -7.20713,-2.13318 -16.28611,-5.42779 -22.09646,10.41886 -7.30307,-17.3546 -34.95595,-18.53021 c 10.48074,-10.31271 14.40924,-14.37844 29.13932,-22.25025 21.07177,-8.42016 32.21134,-9.02933 49.93798,-7.27613 12.57327,2.20031 17.74724,4.30863 26.1497,8.00981 z"
         sodipodi:nodetypes="cccccccccc" /></g></g></svg>
