<?xml version="1.0" encoding="UTF-8" standalone="no"?>
<!-- Created with Inkscape (http://www.inkscape.org/) -->

<svg
   width="23.145844"
   height="23.145851"
   viewBox="0 0 23.145844 23.145851"
   version="1.1"
   id="svg1"
   xml:space="preserve"
   inkscape:version="1.4.3 (0d15f75, 2025-12-25)"
   sodipodi:docname="sector lock.svg"
   inkscape:export-filename="sector lock.png"
   inkscape:export-xdpi="2123.5779"
   inkscape:export-ydpi="2123.5779"
   xmlns:inkscape="http://www.inkscape.org/namespaces/inkscape"
   xmlns:sodipodi="http://sodipodi.sourceforge.net/DTD/sodipodi-0.dtd"
   xmlns="http://www.w3.org/2000/svg"
   xmlns:svg="http://www.w3.org/2000/svg"><sodipodi:namedview
     id="namedview1"
     pagecolor="#505050"
     bordercolor="#ffffff"
     borderopacity="1"
     inkscape:showpageshadow="0"
     inkscape:pageopacity="0"
     inkscape:pagecheckerboard="1"
     inkscape:deskcolor="#505050"
     inkscape:document-units="px"
     showguides="true"
     inkscape:zoom="2.8284271"
     inkscape:cx="133.81996"
     inkscape:cy="60.104077"
     inkscape:window-width="3440"
     inkscape:window-height="1371"
     inkscape:window-x="0"
     inkscape:window-y="32"
     inkscape:window-maximized="1"
     inkscape:current-layer="layer1"><inkscape:page
       x="0"
       y="0"
       width="23.145844"
       height="23.145851"
       id="page2"
       margin="0"
       bleed="0" /></sodipodi:namedview><defs
     id="defs1"><inkscape:path-effect
       effect="fillet_chamfer"
       id="path-effect35-2-1-1"
       is_visible="true"
       lpeversion="1"
       nodesatellites_param="F,0,0,1,0,0,0,1 @ F,0,0,1,0,0.97273308,0,1 @ F,0,1,1,0,0.41161756,0,1 @ F,0,0,1,0,0.62335797,0,1 @ F,0,0,1,0,1.1458541,0,1 @ F,0,0,1,0,0.93537473,0,1 @ F,0,0,1,0,0,0,1 @ F,0,0,1,0,0,0,1 @ F,0,0,1,0,0,0,1 @ F,0,0,1,0,0,0,1 @ F,0,0,1,0,0,0,1 @ F,0,0,1,0,0,0,1 @ F,0,0,1,0,0,0,1 @ F,0,0,1,0,0,0,1"
       radius="0"
       unit="px"
       method="auto"
       mode="F"
       chamfer_steps="1"
       flexible="false"
       use_knot_distance="true"
       apply_no_radius="true"
       apply_with_radius="true"
       only_selected="false"
       hide_knots="false" /></defs><g
     inkscape:label="Layer 1"
     inkscape:groupmode="layer"
     id="layer1"
     transform="translate(-346.0779,-74.060661)"><g
       id="g40"><g
         id="g39-5-8-6"
         transform="matrix(1.1697449,0,0,1.1697449,52.437184,-265.112)"><circle
           style="opacity:1;fill:none;fill-opacity:1;stroke:#ffffff;stroke-width:2.78871;stroke-dasharray:none;stroke-opacity:1"
           id="path24-4-7-5"
           cx="260.92325"
           cy="299.84793"
           r="8.4991894" /><path
           style="opacity:1;fill:none;fill-opacity:1;stroke:#ffffff;stroke-width:1;stroke-dasharray:none;stroke-opacity:1"
           d="m 264.29343,297.32457 1.05532,-0.0404 a 1.1154778,1.1154778 38.897465 0 1 1.14115,0.92071 l 0.86482,4.89811 a 1.2349823,1.2349823 98.420101 0 1 -0.11436,0.77258 l -0.0771,0.15225 a 1.2091782,1.2091782 144.12535 0 1 -0.89793,0.64938 l -9.07853,1.37341 a 1.1216169,1.1216169 37.009865 0 1 -1.2801,-0.96497 l -0.75491,-5.83023 a 0.92641601,0.92641601 127.89798 0 1 0.80863,-1.03881 l 1.03795,-0.12425 c -0.0954,-1.30605 0.12689,-1.64965 0.18309,-1.92699 0.43034,-0.72275 0.56381,-0.92987 1.11133,-1.37917 1.08769,-0.57509 0.90374,-0.44216 1.81197,-0.66291 0.73288,-0.0737 1.2448,-0.14732 1.83406,0 0.72184,0.14731 1.11222,0.37197 1.61309,0.7513 0.41984,0.3425 0.77339,0.7734 0.95017,1.23744 0.17679,0.36092 0.28726,0.94282 0.35356,1.28164"
           id="path35-3-4-0"
           sodipodi:nodetypes="cccccccccccccc"
           inkscape:path-effect="#path-effect35-2-1-1"
           inkscape:original-d="m 264.29343,297.32457 2.02734,-0.0776 1.10552,6.26138 -0.54459,1.07562 -10.82784,1.63805 -1.02216,-7.89423 1.96669,-0.23543 c -0.0954,-1.30605 0.12689,-1.64965 0.18309,-1.92699 0.43034,-0.72275 0.56381,-0.92987 1.11133,-1.37917 1.08769,-0.57509 0.90374,-0.44216 1.81197,-0.66291 0.73288,-0.0737 1.2448,-0.14732 1.83406,0 0.72184,0.14731 1.11222,0.37197 1.61309,0.7513 0.41984,0.3425 0.77339,0.7734 0.95017,1.23744 0.17679,0.36092 0.28726,0.94282 0.35356,1.28164" /><path
           style="opacity:1;fill:#ffffff;fill-opacity:1;stroke:#ffffff;stroke-width:0.812414;stroke-dasharray:none;stroke-opacity:1"
           id="path37-1-2-2"
           transform="matrix(-0.99500821,0.09979312,-0.08240102,-0.99659925,0,0)"
           sodipodi:type="arc"
           sodipodi:cx="-235.48715"
           sodipodi:cy="-322.38504"
           sodipodi:rx="1.6466568"
           sodipodi:ry="1.6652328"
           sodipodi:start="0"
           sodipodi:end="3.1355154"
           sodipodi:arc-type="slice"
           d="m -233.8405,-322.38504 a 1.6466568,1.6652328 0 0 1 -1.64165,1.66522 1.6466568,1.6652328 0 0 1 -1.65163,-1.6551 l 1.64663,-0.0101 z" /><path
           style="opacity:1;fill:#ffffff;fill-opacity:1;stroke:#ffffff;stroke-width:0.5;stroke-dasharray:none;stroke-opacity:1"
           d="m 265.09375,297.34375 h 1.5625 l 0.96875,5.59375 1.1875,-5.625 -6.96875,-6.5 -7.3125,2.8125 -2.09375,7.84375 3.71875,4.6875 -0.65625,-3.75 -0.25,-3.53125 0.96875,-0.625 0.59375,-0.0937 -0.125,-1.90625 1.15625,-1.09375 2.21875,-0.96875 2.8125,-0.0937 1.34375,1.1875 c 0,0 0.5625,1.34375 0.65625,1.5 0.0937,0.15625 0.21875,0.5625 0.21875,0.5625 z"
           id="path38-2-7-8" /><path
           style="opacity:1;fill:#ffffff;fill-opacity:1;stroke:#ffffff;stroke-width:0.5;stroke-dasharray:none;stroke-opacity:1"
           d="m 257.34267,307.28209 7.26995,0.28726 1.10485,-2.49697 -8.50738,1.61309 z"
           id="path39-3-7-6" /></g></g></g></svg>
