<?xml version="1.0" encoding="UTF-8" standalone="no"?>
<!-- Created with Inkscape (http://www.inkscape.org/) -->

<svg
   width="61.526703"
   height="96.133064"
   viewBox="0 0 61.526703 96.133064"
   version="1.1"
   id="svg1"
   xml:space="preserve"
   inkscape:version="1.4.3 (0d15f75, 2025-12-25)"
   sodipodi:docname="sector 5 finished image.svg"
   inkscape:export-filename="sector 5 finished image.png"
   inkscape:export-xdpi="1200"
   inkscape:export-ydpi="1200"
   xmlns:inkscape="http://www.inkscape.org/namespaces/inkscape"
   xmlns:sodipodi="http://sodipodi.sourceforge.net/DTD/sodipodi-0.dtd"
   xmlns:xlink="http://www.w3.org/1999/xlink"
   xmlns="http://www.w3.org/2000/svg"
   xmlns:svg="http://www.w3.org/2000/svg"><sodipodi:namedview
     id="namedview1"
     pagecolor="#505050"
     bordercolor="#ffffff"
     borderopacity="1"
     inkscape:showpageshadow="0"
     inkscape:pageopacity="0"
     inkscape:pagecheckerboard="1"
     inkscape:deskcolor="#505050"
     inkscape:document-units="px"
     showguides="true"
     inkscape:zoom="2.8284271"
     inkscape:cx="41.7193"
     inkscape:cy="52.679456"
     inkscape:window-width="1033"
     inkscape:window-height="1177"
     inkscape:window-x="1812"
     inkscape:window-y="114"
     inkscape:window-maximized="0"
     inkscape:current-layer="g2"><inkscape:page
       x="0"
       y="0"
       width="61.526703"
       height="96.133064"
       id="page2"
       margin="0"
       bleed="0" /></sodipodi:namedview><defs
     id="defs1"><inkscape:path-effect
       effect="fillet_chamfer"
       id="path-effect2"
       is_visible="true"
       lpeversion="1"
       nodesatellites_param="F,0,0,1,0,1.9090964,0,1 @ F,0,0,1,0,2.8940797,0,1 @ F,0,0,1,0,2.042973,0,1 @ F,0,1,1,0,2.042973,0,1 @ F,0,0,1,0,2.9741421,0,1 @ F,0,0,1,0,3.7847953,0,1 @ F,0,0,1,0,3.0006921,0,1 @ F,0,0,1,0,3.0006921,0,1 @ F,0,0,1,0,2.2493095,0,1 @ F,0,0,1,0,2.271268,0,1"
       radius="0"
       unit="px"
       method="auto"
       mode="F"
       chamfer_steps="1"
       flexible="false"
       use_knot_distance="true"
       apply_no_radius="true"
       apply_with_radius="true"
       only_selected="false"
       hide_knots="false" /><pattern
       inkscape:collect="always"
       xlink:href="#halftones"
       preserveAspectRatio="xMidYMid"
       id="pattern12"
       patternTransform="matrix(0.4330127,0.25,-0.25,0.4330127,-69.846067,98.872701)"
       x="0"
       y="0" /><pattern
       patternUnits="userSpaceOnUse"
       width="10"
       height="10"
       preserveAspectRatio="xMidYMid"
       style="fill:#ffffff"
       id="halftones"
       x="0"
       y="0"
       inkscape:label="Halftones"
       inkscape:collect="always"
       inkscape:isstock="true"><g
         id="fullPattern"
         style="display:inline"
         transform="scale(0.1)"><circle
           style="fill-opacity:1;stroke:none;paint-order:markers fill stroke;stop-color:#000000"
           id="circle10"
           cx="50"
           cy="50"
           r="25" /><path
           id="circle37"
           style="paint-order:markers fill stroke"
           d="M 25,0 A 25,25 0 0 1 0,25 25,25 0 0 1 -25,0 25,25 0 0 1 0,-25 25,25 0 0 1 25,0 Z" /><path
           id="circle39"
           style="paint-order:markers fill stroke"
           d="M 125,0 A 25,25 0 0 1 100,25 25,25 0 0 1 75,0 25,25 0 0 1 100,-25 25,25 0 0 1 125,0 Z" /><path
           id="circle43"
           style="paint-order:markers fill stroke"
           d="M 25,100 A 25,25 0 0 1 0,125 25,25 0 0 1 -25,100 25,25 0 0 1 0,75 25,25 0 0 1 25,100 Z" /><path
           id="circle45"
           style="paint-order:markers fill stroke"
           d="m 125,100 a 25,25 0 0 1 -25,25 25,25 0 0 1 -25,-25 25,25 0 0 1 25,-25 25,25 0 0 1 25,25 z" /></g></pattern><clipPath
       clipPathUnits="userSpaceOnUse"
       id="clipPath2"><use
         x="0"
         y="0"
         xlink:href="#g1"
         id="use2" /></clipPath></defs><g
     inkscape:label="Layer 1"
     inkscape:groupmode="layer"
     id="layer1"
     transform="translate(-330.92697,-40.590702)"><g
       id="g24"
       transform="translate(56.539876,-170.24785)"><g
         id="g2"
         clip-path="url(#clipPath2)"><g
           inkscape:label="Clip"
           id="g1"><path
             style="opacity:1;fill:none;fill-opacity:0.100619;stroke:none;stroke-width:1.5;stroke-dasharray:none;stroke-opacity:1"
             d="m 334.69188,243.08966 -6.80254,-12.44368 a 9.3112841,9.3112841 44.070049 0 0 -3.97133,-3.84446 l -29.58572,-14.94745 c -1.00707,-0.5088 -2.4082,-0.21726 -3.08762,0.68345 -0.76343,1.01209 -1.3148,1.83992 -1.96952,2.8481 -0.61379,0.94516 -1.56714,2.5044 -2.13185,3.48122 -1.30009,2.24886 -2.93052,5.12614 -4.74993,9.16656 -0.67429,1.49741 -1.59009,3.99625 -2.11965,5.5511 -1.77578,5.2139 -3.30858,9.31529 -4.49163,17.50019 -0.29882,2.06736 -0.57326,5.44378 -0.61504,7.53355 -0.0869,4.34816 -0.0401,11.79079 0.93845,18.80492 0.22887,1.6405 0.7164,4.2839 1.09873,5.89625 2.02297,8.53122 5.84486,17.15871 7.86489,21.39464 0.7128,1.49472 2.46276,1.96769 3.85972,1.07609 14.84074,-9.47205 27.13182,-17.67464 40.77894,-26.2892 1.04965,-0.66257 1.82787,-2.20193 1.73658,-3.44083 l -1.22258,-16.59205 a 9.0184667,9.0184667 99.921579 0 1 0.75898,-4.33911 l 3.84862,-8.62089 a 3.8524903,3.8524903 87.696692 0 0 -0.1375,-3.4184 z"
             id="path2"
             inkscape:path-effect="#path-effect2"
             inkscape:original-d="m 335.60762,244.76479 -9.10649,-16.65821 -33.9923,-17.17377 c -2.0503,2.51221 -2.68315,3.62439 -4.34475,6.16436 -1.647,2.89392 -4.12133,6.85387 -6.951,13.66546 -2.44012,7.56049 -4.49222,11.65133 -5.9138,24.0733 0,0 -0.83408,14.08743 1.28338,25.54819 2.36586,12.80518 9.81516,27.01788 9.81516,27.01788 16.69232,-10.60655 30.01816,-19.55498 45.21183,-29.09866 l -1.55477,-21.10041 z"
             sodipodi:nodetypes="ccccccscccc" /></g><rect
           style="opacity:0.5;fill:url(#pattern12);stroke:none;stroke-width:5.5;stroke-opacity:1"
           id="rect1"
           width="60.776466"
           height="95.366669"
           x="275.13733"
           y="211.60495"
           transform="translate(4e-6)" /></g></g></g></svg>
