<?xml version="1.0" encoding="UTF-8" standalone="no"?>
<!-- Created with Inkscape (http://www.inkscape.org/) -->

<svg
   width="82.429474"
   height="76.206139"
   viewBox="0 0 82.429474 76.206139"
   version="1.1"
   id="svg1"
   xml:space="preserve"
   inkscape:version="1.4.3 (0d15f75, 2025-12-25)"
   sodipodi:docname="sector 2 main image.svg"
   inkscape:export-filename="sector 2 main image.png"
   inkscape:export-xdpi="1200"
   inkscape:export-ydpi="1200"
   xmlns:inkscape="http://www.inkscape.org/namespaces/inkscape"
   xmlns:sodipodi="http://sodipodi.sourceforge.net/DTD/sodipodi-0.dtd"
   xmlns="http://www.w3.org/2000/svg"
   xmlns:svg="http://www.w3.org/2000/svg"><sodipodi:namedview
     id="namedview1"
     pagecolor="#505050"
     bordercolor="#ffffff"
     borderopacity="1"
     inkscape:showpageshadow="0"
     inkscape:pageopacity="0"
     inkscape:pagecheckerboard="1"
     inkscape:deskcolor="#505050"
     inkscape:document-units="px"
     showguides="true"
     inkscape:zoom="2.8284271"
     inkscape:cx="17.67767"
     inkscape:cy="52.325902"
     inkscape:window-width="1631"
     inkscape:window-height="1177"
     inkscape:window-x="1616"
     inkscape:window-y="47"
     inkscape:window-maximized="0"
     inkscape:current-layer="layer1"><inkscape:page
       x="0"
       y="0"
       width="82.429474"
       height="76.206139"
       id="page2"
       margin="0"
       bleed="0" /></sodipodi:namedview><defs
     id="defs1"><inkscape:path-effect
       effect="fillet_chamfer"
       id="path-effect37"
       is_visible="true"
       lpeversion="1"
       nodesatellites_param="F,0,0,1,0,1.8416173,0,1 @ F,0,0,1,0,0,0,1 @ F,0,1,1,0,2.6533938,0,1 @ F,0,0,1,0,2.6533938,0,1 @ F,0,0,1,0,2.3291849,0,1 @ F,0,0,1,0,2.0152365,0,1 @ F,0,0,1,0,1.8619593,0,1 @ F,0,0,1,0,1.165655,0,1 @ F,0,0,1,0,1.3289195,0,1 @ F,0,0,1,0,1.1139222,0,1"
       radius="0"
       unit="px"
       method="auto"
       mode="F"
       chamfer_steps="1"
       flexible="false"
       use_knot_distance="true"
       apply_no_radius="true"
       apply_with_radius="true"
       only_selected="false"
       hide_knots="false" /></defs><g
     inkscape:label="Layer 1"
     inkscape:groupmode="layer"
     id="layer1"
     transform="translate(-421.52466,-104.88605)"><g
       id="g24"
       transform="translate(56.539876,-170.24785)"><path
         style="fill:#c5bbd0;fill-opacity:0.100619;fill-rule:nonzero;stroke:#ffffff;stroke-width:1.5;stroke-dasharray:none;stroke-opacity:1"
         d="m 364.85716,298.33169 7.10162,38.74666 1.98908,12.28407 c 0.23423,1.44659 1.59904,2.44227 3.04164,2.18481 14.59937,-2.60559 26.09558,-7.79405 38.40202,-16.65554 1.18919,-0.8563 3.04915,-2.33367 4.15781,-3.29196 7.02147,-6.06908 12.62028,-11.86113 18.18448,-20.31542 0.70718,-1.0745 1.78031,-2.8627 2.41342,-3.98249 4.91972,-8.70158 7.00049,-13.55915 9.13844,-21.63743 0.28475,-1.07593 -0.35853,-2.22125 -1.42063,-2.55392 l -21.09679,-6.60792 a 16.025028,16.025028 10.764028 0 0 -3.63395,-0.69085 l -21.29617,-1.54017 a 74.135084,74.135084 5.0373191 0 1 -2.32202,-0.20467 l -4.77101,-0.49625 c -0.73001,-0.0759 -1.70854,0.31466 -2.18916,0.86934 -6.11691,7.05933 -12.6411,13.74315 -19.09588,20.49136 -0.42437,0.44366 -1.26447,0.85139 -1.87685,0.91028 l -5.2249,0.50239 a 1.6906756,1.6906756 127.06078 0 0 -1.50115,1.98771 z"
         id="path28"
         inkscape:path-effect="#path-effect37"
         inkscape:original-d="m 364.52515,296.52025 7.43363,40.5581 2.4132,14.90335 c 16.72717,-2.57351 29.29675,-8.28765 43.1582,-18.66051 8.53828,-7.18866 14.95252,-13.62057 21.46258,-23.99643 6.1808,-10.74133 8.30004,-15.67027 10.79539,-25.61194 l -24.79674,-7.76681 -24.3159,-1.75856 -7.2522,-0.75432 c -6.60653,7.71399 -13.7211,14.95955 -20.73129,22.30184 z"
         sodipodi:nodetypes="ccccccccccc"
         transform="matrix(0.95820772,0,0,0.95820772,16.120743,13.727602)" /></g></g></svg>
