<?xml version="1.0" encoding="UTF-8" standalone="no"?>
<!-- Created with Inkscape (http://www.inkscape.org/) -->

<svg
   width="113.52399"
   height="113.52399"
   viewBox="0 0 113.52399 113.52399"
   version="1.1"
   id="svg1"
   xml:space="preserve"
   inkscape:version="1.4.3 (0d15f75, 2025-12-25)"
   sodipodi:docname="sector 4 icon.svg"
   inkscape:export-filename="sector 4 icon.png"
   inkscape:export-xdpi="432.97"
   inkscape:export-ydpi="432.97"
   xmlns:inkscape="http://www.inkscape.org/namespaces/inkscape"
   xmlns:sodipodi="http://sodipodi.sourceforge.net/DTD/sodipodi-0.dtd"
   xmlns="http://www.w3.org/2000/svg"
   xmlns:svg="http://www.w3.org/2000/svg"><sodipodi:namedview
     id="namedview1"
     pagecolor="#505050"
     bordercolor="#ffffff"
     borderopacity="1"
     inkscape:showpageshadow="0"
     inkscape:pageopacity="0"
     inkscape:pagecheckerboard="1"
     inkscape:deskcolor="#505050"
     inkscape:document-units="px"
     showguides="true"
     inkscape:zoom="1.4142136"
     inkscape:cx="138.94648"
     inkscape:cy="275.06453"
     inkscape:window-width="3440"
     inkscape:window-height="1371"
     inkscape:window-x="0"
     inkscape:window-y="32"
     inkscape:window-maximized="1"
     inkscape:current-layer="layer1"><inkscape:page
       x="0"
       y="0"
       width="113.52399"
       height="113.52399"
       id="page2"
       margin="0"
       bleed="0" /></sodipodi:namedview><defs
     id="defs1" /><g
     inkscape:label="Layer 1"
     inkscape:groupmode="layer"
     id="layer1"
     transform="translate(-204.238,-236.738)"><g
       id="g47"
       transform="translate(-14,-18.5)"><circle
         style="opacity:1;fill:#ffffff;fill-opacity:1;fill-rule:nonzero;stroke:#ffffff;stroke-width:2.524;stroke-dasharray:none;stroke-opacity:1"
         id="path46"
         cx="275"
         cy="312"
         r="55.5" /><g
         id="g42"
         transform="matrix(2.346515,0,0,2.346515,-285.99478,-257.43538)"><path
           fill-rule="nonzero"
           fill="#000000"
           fill-opacity="1"
           d="m 225.07048,236.12359 v 0 c 0.009,-3.1e-4 0.0195,-5.7e-4 0.0298,-5.7e-4 v 0 c 1.54688,-0.001 2.88395,4.61523 3.87973,7.83516 1.19532,3.86427 2.08186,6.47592 2.77641,6.58274 v 0 c 0.0127,0.002 0.0252,0.004 0.0378,0.004 0.72762,-5.7e-4 1.65596,-2.70099 2.90809,-6.73567 0.92641,-2.98535 2.07208,-6.84122 3.3413,-7.5459 0.15447,-0.0859 0.31015,-0.12763 0.46532,-0.12782 1.674,-10e-4 3.1051,5.00676 4.12588,8.3663 0.70049,2.30453 1.29965,4.25434 1.83274,5.25286 0.31729,0.59476 0.56284,0.74915 0.75023,0.74897 0.81162,-5.7e-4 1.69882,-2.62788 2.9035,-6.58857 0.18501,-0.6079 0.56488,-0.77941 0.84844,-0.38296 0.28338,0.39645 0.36331,1.21069 0.17846,1.81858 -0.98047,3.223 -2.27885,7.77975 -3.92997,7.7812 -0.55418,3e-4 -1.07545,-0.49543 -1.55737,-1.39807 -0.69207,-1.29671 -1.39494,-3.63184 -2.0531,-5.79748 -1.26114,-4.14989 -2.27061,-7.17349 -3.09839,-7.17276 -0.0523,1.8e-4 -0.10464,0.0146 -0.1584,0.0437 -0.69259,0.38459 -1.54059,2.95341 -2.62802,6.4577 -1.0071,3.24543 -2.36328,7.9066 -3.92829,7.90788 -0.0418,0 -0.0838,-0.004 -0.12574,-0.009 -1.46094,-0.22458 -2.73644,-4.60286 -3.71046,-7.7517 -1.24193,-4.01591 -2.15063,-6.66001 -2.8576,-6.65929 v 0 c -0.002,0 -0.005,0 -0.008,2.1e-4 -0.69778,0.026 -1.59911,2.63733 -2.83193,6.59384 -0.99968,3.20807 1.29345,-9.16672 2.80983,-9.22322 z"
           id="path2-4"
           style="fill:#a64cd6;fill-opacity:1;stroke-width:0.0318692"
           sodipodi:nodetypes="sssscssccccccccccccsccscccssccs" /><path
           sodipodi:type="star"
           style="opacity:1;fill:#a64cd6;fill-opacity:1;stroke:#a64cd6;stroke-width:0.327;stroke-dasharray:none;stroke-opacity:1"
           id="path42"
           inkscape:flatsided="false"
           sodipodi:sides="5"
           sodipodi:cx="263.22049"
           sodipodi:cy="232.81491"
           sodipodi:r1="24.197754"
           sodipodi:r2="10.827054"
           sodipodi:arg1="0.70783388"
           sodipodi:arg2="1.3361524"
           inkscape:rounded="0"
           inkscape:randomized="0"
           d="m 281.60527,248.54804 -15.86753,-5.20277 -11.79913,11.81641 0.0448,-16.69866 -14.8842,-7.57018 15.89521,-5.11757 2.60019,-16.49503 9.77899,13.53582 16.49121,-2.62431 -9.85146,13.48317 z"
           inkscape:transform-center-x="0.030762062"
           inkscape:transform-center-y="0.70594959"
           transform="matrix(0.20374915,0.24441473,-0.24441473,0.20374915,254.35423,130.0182)" /></g></g></g></svg>
