<?xml version="1.0" encoding="UTF-8" standalone="no"?>
<!-- Created with Inkscape (http://www.inkscape.org/) -->

<svg
   width="131.02399"
   height="131.02399"
   viewBox="0 0 131.02399 131.02399"
   version="1.1"
   id="svg1"
   xml:space="preserve"
   inkscape:version="1.4.3 (0d15f75, 2025-12-25)"
   sodipodi:docname="sector 5 icon.svg"
   inkscape:export-filename="sector 5 icon.png"
   inkscape:export-xdpi="375.14001"
   inkscape:export-ydpi="375.14001"
   xmlns:inkscape="http://www.inkscape.org/namespaces/inkscape"
   xmlns:sodipodi="http://sodipodi.sourceforge.net/DTD/sodipodi-0.dtd"
   xmlns="http://www.w3.org/2000/svg"
   xmlns:svg="http://www.w3.org/2000/svg"><sodipodi:namedview
     id="namedview1"
     pagecolor="#505050"
     bordercolor="#ffffff"
     borderopacity="1"
     inkscape:showpageshadow="0"
     inkscape:pageopacity="0"
     inkscape:pagecheckerboard="1"
     inkscape:deskcolor="#505050"
     inkscape:document-units="px"
     showguides="true"
     inkscape:zoom="1.4142136"
     inkscape:cx="138.94648"
     inkscape:cy="275.06453"
     inkscape:window-width="3440"
     inkscape:window-height="1371"
     inkscape:window-x="0"
     inkscape:window-y="32"
     inkscape:window-maximized="1"
     inkscape:current-layer="layer1"><inkscape:page
       x="0"
       y="0"
       width="131.02399"
       height="131.02399"
       id="page2"
       margin="0"
       bleed="0" /></sodipodi:namedview><defs
     id="defs1" /><g
     inkscape:label="Layer 1"
     inkscape:groupmode="layer"
     id="layer1"
     transform="translate(-135.73801,-368.238)"><g
       id="g48"><circle
         style="opacity:1;fill:#ffffff;fill-opacity:1;fill-rule:nonzero;stroke:#ffffff;stroke-width:2.524;stroke-dasharray:none;stroke-opacity:1"
         id="path47"
         cx="201.25"
         cy="433.75"
         r="64.25" /><path
         fill-rule="nonzero"
         fill="#000000"
         fill-opacity="1"
         d="m 201.01207,380.24907 c 6.00116,0 11.36156,6.13621 15.17665,16.05641 0.72896,1.89562 1.40323,3.93187 2.01664,6.09166 2.16941,-0.71188 4.26871,-1.30606 6.27916,-1.77653 10.52239,-2.46243 18.71251,-1.55046 22.07479,3.32036 2.04933,2.96752 2.03925,7.0187 0.30577,11.68887 1.23071,0.81202 2.04048,2.18977 2.04048,3.75257 0,2.49666 -2.06578,4.52063 -4.61314,4.52063 -0.58214,0 -1.1392,-0.10584 -1.65184,-0.29862 -0.3654,0.54525 -0.74809,1.09449 -1.14701,1.64759 -2.07997,2.88133 -4.61459,5.86844 -7.54464,8.8817 2.93047,3.0135 5.46426,6.00062 7.54464,8.88233 6.24647,8.65343 8.42843,16.44083 5.06574,21.31103 -3.36228,4.87044 -11.5524,5.7826 -22.07479,3.32017 -2.01045,-0.47066 -4.10975,-1.06464 -6.27916,-1.77672 -0.61382,2.15976 -1.28768,4.19663 -2.01664,6.09229 -3.81509,9.92016 -9.17549,16.05616 -15.17665,16.05616 -2.44681,0 -4.78629,-1.01995 -6.95879,-2.89987 -0.71602,0.44814 -1.56711,0.70804 -2.47991,0.70804 -2.54737,0 -4.61294,-2.02397 -4.61294,-4.52044 0,-1.36125 0.61421,-2.58208 1.58602,-3.41083 -0.97118,-1.78077 -1.87823,-3.76666 -2.71103,-5.93306 -0.72917,-1.89566 -1.40344,-3.9323 -2.01726,-6.09229 -2.16879,0.71208 -4.26809,1.30606 -6.27897,1.77672 -10.52238,2.46243 -18.71207,1.55027 -22.07477,-3.32017 -3.3627,-4.8702 -1.18074,-12.6576 5.06574,-21.31103 2.08017,-2.88171 4.61438,-5.86883 7.54484,-8.8817 -2.93067,-3.01351 -5.46447,-6.00062 -7.54484,-8.88233 -6.24648,-8.65343 -8.42844,-16.44063 -5.06574,-21.31104 1.76412,-2.55531 4.85681,-4.02016 8.91784,-4.48095 0.31811,-2.19221 2.24139,-3.87832 4.56667,-3.87832 2.45545,0 4.46262,1.87952 4.60492,4.25084 1.2854,0.20474 2.61543,0.46788 3.98534,0.78807 2.01088,0.47105 4.11018,1.06465 6.27897,1.77712 0.61382,-2.15976 1.28809,-4.19663 2.01726,-6.09225 3.81487,-9.9202 9.17488,-16.05641 15.17665,-16.05641 z m 43.28035,34.61328 c 0.39852,0 0.7849,0.0496 1.154,0.14247 1.52559,-4.14044 1.55869,-7.67438 -0.18794,-10.20389 -2.95842,-4.28489 -10.54213,-4.99838 -20.41185,-2.68849 -1.994,0.46686 -4.07868,1.05804 -6.23433,1.76825 1.52598,5.76993 2.62776,12.35119 3.18893,19.44104 4.08983,3.1894 7.799,6.458 11.05683,9.70763 2.85581,-2.94057 5.32525,-5.8529 7.35257,-8.66147 0.37631,-0.52108 0.73698,-1.0385 1.08224,-1.5511 -0.98805,-0.82891 -1.614,-2.05961 -1.614,-3.43438 0,-2.49589 2.06577,-4.52006 4.61355,-4.52006 z m -70.91007,-13.50674 c -0.5548,1.88638 -2.3296,3.26677 -4.43342,3.26677 -2.24138,0 -4.10935,-1.56698 -4.52617,-3.64373 -3.52082,0.4205 -6.17204,1.67137 -7.65731,3.82228 -2.95842,4.28489 -0.81287,11.44847 5.04744,19.56696 2.02731,2.80857 4.49675,5.7209 7.35278,8.66147 3.25802,-3.24963 6.96742,-6.51823 11.05661,-9.70763 0.56158,-7.08943 1.66337,-13.67111 3.18956,-19.44104 -2.15584,-0.71021 -4.24034,-1.30139 -6.23476,-1.76825 -1.30699,-0.30585 -2.57327,-0.55814 -3.79473,-0.75683 z m 18.19102,75.43084 c 2.54778,0 4.61356,2.02398 4.61356,4.52025 0,1.05078 -0.36583,2.01753 -0.97965,2.78503 1.84184,1.55047 3.79226,2.38746 5.80479,2.38746 5.27939,0 10.13189,-5.75439 13.70947,-15.05782 0.7232,-1.88069 1.3917,-3.90448 1.99936,-6.05277 -4.96951,-1.72939 -10.27583,-4.05902 -15.70944,-6.93953 -5.43321,2.88051 -10.73934,5.21014 -15.70884,6.93953 0.60744,2.14849 1.27615,4.17184 1.99936,6.05277 0.7997,2.07837 1.66253,3.97924 2.57945,5.67883 0.52373,-0.20251 1.09499,-0.31375 1.69194,-0.31375 z m 9.4387,-50.37244 c 4.35137,0 7.87878,3.45657 7.87878,7.7197 0,4.26376 -3.52741,7.72032 -7.87878,7.72032 -4.35137,0 -7.879,-3.45656 -7.879,-7.72032 0,-4.26313 3.52763,-7.7197 7.879,-7.7197 z m -17.60023,37.97335 c -1.52619,-5.76989 -2.62839,-12.35157 -3.18956,-19.44166 -4.08939,-3.18878 -7.79859,-6.45738 -11.05661,-9.707 -2.85582,2.94056 -5.32547,5.85289 -7.35278,8.66147 -5.86031,8.11848 -8.00586,15.28226 -5.04744,19.56695 2.95842,4.2847 10.54213,4.99839 20.41163,2.68848 1.99442,-0.46661 4.07892,-1.05799 6.23476,-1.76824 z m 33.71476,-60.0023 c -4.58702,1.60362 -9.46954,3.72896 -14.47791,6.33626 3.39168,1.85916 6.82451,3.92908 10.24766,6.19804 2.51056,1.66415 4.92098,3.37297 7.21994,5.10984 -0.57761,-6.41469 -1.60454,-12.37497 -2.98969,-17.64414 z m -16.11514,7.20349 c -3.63393,1.95807 -7.324,4.16457 -11.00624,6.60605 -2.89796,1.9208 -5.66003,3.90005 -8.26846,5.91274 -0.23956,3.24544 -0.36479,6.59719 -0.36479,10.02637 0,3.42981 0.12523,6.78161 0.36479,10.027 2.60843,2.01228 5.3709,3.99195 8.26846,5.91274 3.68224,2.44085 7.37231,4.64818 11.00685,6.60566 3.63434,-1.95748 7.32459,-4.16481 11.00685,-6.60566 2.89736,-1.92079 5.66002,-3.90046 8.26784,-5.91274 0.23957,-3.24539 0.36541,-6.59719 0.36541,-10.027 0,-3.42918 -0.12584,-6.78093 -0.36541,-10.02637 -2.60844,-2.01228 -5.37048,-3.99194 -8.26784,-5.91274 -3.68286,-2.44148 -7.37313,-4.64798 -11.00746,-6.60605 z m -20.93764,13.82326 c -3.60925,2.87666 -6.89978,5.80855 -9.81872,8.72253 2.91915,2.91334 6.20947,5.84523 9.81872,8.72189 -0.17952,-2.83896 -0.27329,-5.75293 -0.27329,-8.72252 0,-2.96954 0.0932,-5.88289 0.27329,-8.7219 z m 4.82349,38.471 c 4.58663,-1.60365 9.46915,-3.72878 14.47752,-6.33628 -3.39169,-1.85896 -6.82389,-3.92888 -10.24725,-6.19784 -2.51035,-1.66454 -4.92098,-3.37298 -7.22036,-5.1098 0.57804,6.41467 1.60517,12.37512 2.99009,17.64392 z m 37.05301,-21.02658 c 3.60905,-2.87666 6.89916,-5.80855 9.8181,-8.72252 -2.91894,-2.91335 -6.20905,-5.84524 -9.8181,-8.7219 0.17952,2.83901 0.27308,5.75236 0.27308,8.7219 0,2.96959 -0.0936,5.88356 -0.27308,8.72252 z m 10.90774,-7.61815 c -3.25783,3.25024 -6.96763,6.51884 -11.05683,9.70824 -0.56117,7.08947 -1.66335,13.67115 -3.18893,19.44104 2.15565,0.71025 4.23971,1.30163 6.23433,1.76824 9.86972,2.30991 17.45343,1.59622 20.41185,-2.68848 2.95842,-4.28469 0.81266,-11.44847 -5.04785,-19.56695 -2.02732,-2.80858 -4.49676,-5.72131 -7.35257,-8.66209 z m -12.74177,11.00081 c -2.29896,1.73682 -4.70938,3.44526 -7.21994,5.1098 -3.42315,2.26896 -6.85598,4.33888 -10.24766,6.19765 5.00837,2.6075 9.89089,4.73259 14.47751,6.33627 1.38555,-5.2686 2.41248,-11.22905 2.99009,-17.64372 z M 181.90722,422.0292 c 2.29938,-1.73687 4.71001,-3.44569 7.22036,-5.10984 3.42336,-2.26896 6.85556,-4.33888 10.24725,-6.19745 -5.00776,-2.60747 -9.89029,-4.73323 -14.47752,-6.33685 -1.38492,5.26917 -2.41205,11.22945 -2.99009,17.64414 z m 19.10485,-12.19041 c 5.433,-2.88033 10.73932,-5.21014 15.70924,-6.93916 -0.60807,-2.14848 -1.27657,-4.17203 -1.99977,-6.05314 -3.57758,-9.30325 -8.43008,-15.05782 -13.70947,-15.05782 -5.2796,0 -10.13209,5.75457 -13.71009,15.05782 -0.72321,1.88069 -1.39192,3.90466 -1.99936,6.05314 4.96991,1.72902 10.27625,4.05883 15.70945,6.93916"
         id="path2-9"
         style="fill:#a64cd6;fill-opacity:1;fill-rule:nonzero;stroke-width:0.0147344;stroke-dasharray:none" /></g></g></svg>
