<?xml version="1.0" encoding="UTF-8" standalone="no"?>
<!-- Created with Inkscape (http://www.inkscape.org/) -->

<svg
   width="64.41153"
   height="91.499084"
   viewBox="0 0 64.41153 91.499084"
   version="1.1"
   id="svg1"
   xml:space="preserve"
   inkscape:version="1.4.3 (0d15f75, 2025-12-25)"
   sodipodi:docname="sector 3 finished image.svg"
   inkscape:export-filename="sector 3 finished image.png"
   inkscape:export-xdpi="1200"
   inkscape:export-ydpi="1200"
   xmlns:inkscape="http://www.inkscape.org/namespaces/inkscape"
   xmlns:sodipodi="http://sodipodi.sourceforge.net/DTD/sodipodi-0.dtd"
   xmlns:xlink="http://www.w3.org/1999/xlink"
   xmlns="http://www.w3.org/2000/svg"
   xmlns:svg="http://www.w3.org/2000/svg"><sodipodi:namedview
     id="namedview1"
     pagecolor="#505050"
     bordercolor="#ffffff"
     borderopacity="1"
     inkscape:showpageshadow="0"
     inkscape:pageopacity="0"
     inkscape:pagecheckerboard="1"
     inkscape:deskcolor="#505050"
     inkscape:document-units="px"
     showguides="true"
     inkscape:zoom="7.9999999"
     inkscape:cx="33"
     inkscape:cy="48.875"
     inkscape:window-width="1419"
     inkscape:window-height="1177"
     inkscape:window-x="1468"
     inkscape:window-y="130"
     inkscape:window-maximized="0"
     inkscape:current-layer="g2"><inkscape:page
       x="0"
       y="0"
       width="64.41153"
       height="91.499084"
       id="page2"
       margin="0"
       bleed="0" /></sodipodi:namedview><defs
     id="defs1"><inkscape:path-effect
       effect="fillet_chamfer"
       id="path-effect36"
       is_visible="true"
       lpeversion="1"
       nodesatellites_param="F,0,0,1,0,2.6963323,0,1 @ F,0,0,1,0,3.7023607,0,1 @ F,0,0,1,0,2.3271574,0,1 @ F,0,0,1,0,2.4651406,0,1 @ F,0,0,1,0,2.8774507,0,1 @ F,0,0,1,0,2.5504844,0,1 @ F,0,0,1,0,2.4957941,0,1 @ F,0,0,1,0,5.9904324,0,1 @ F,0,0,1,0,5.6609085,0,1 @ F,0,0,1,0,2.7096701,0,1"
       radius="0"
       unit="px"
       method="auto"
       mode="F"
       chamfer_steps="1"
       flexible="false"
       use_knot_distance="true"
       apply_no_radius="true"
       apply_with_radius="true"
       only_selected="false"
       hide_knots="false" /><pattern
       inkscape:collect="always"
       xlink:href="#halftones"
       preserveAspectRatio="xMidYMid"
       id="pattern12"
       patternTransform="matrix(0.4330127,0.25,-0.25,0.4330127,41.260974,74.142434)"
       x="0"
       y="0" /><pattern
       patternUnits="userSpaceOnUse"
       width="10"
       height="10"
       preserveAspectRatio="xMidYMid"
       style="fill:#ffffff"
       id="halftones"
       x="0"
       y="0"
       inkscape:label="Halftones"
       inkscape:collect="always"
       inkscape:isstock="true"><g
         id="fullPattern"
         style="display:inline"
         transform="scale(0.1)"><circle
           style="fill-opacity:1;stroke:none;paint-order:markers fill stroke;stop-color:#000000"
           id="circle10"
           cx="50"
           cy="50"
           r="25" /><path
           id="circle37"
           style="paint-order:markers fill stroke"
           d="M 25,0 A 25,25 0 0 1 0,25 25,25 0 0 1 -25,0 25,25 0 0 1 0,-25 25,25 0 0 1 25,0 Z" /><path
           id="circle39"
           style="paint-order:markers fill stroke"
           d="M 125,0 A 25,25 0 0 1 100,25 25,25 0 0 1 75,0 25,25 0 0 1 100,-25 25,25 0 0 1 125,0 Z" /><path
           id="circle43"
           style="paint-order:markers fill stroke"
           d="M 25,100 A 25,25 0 0 1 0,125 25,25 0 0 1 -25,100 25,25 0 0 1 0,75 25,25 0 0 1 25,100 Z" /><path
           id="circle45"
           style="paint-order:markers fill stroke"
           d="m 125,100 a 25,25 0 0 1 -25,25 25,25 0 0 1 -25,-25 25,25 0 0 1 25,-25 25,25 0 0 1 25,25 z" /></g></pattern><clipPath
       clipPathUnits="userSpaceOnUse"
       id="clipPath2"><use
         x="0"
         y="0"
         xlink:href="#g1"
         id="use2" /></clipPath></defs><g
     inkscape:label="Layer 1"
     inkscape:groupmode="layer"
     id="layer1"
     transform="translate(-442.78424,-16.626852)"><g
       id="g24"
       transform="translate(56.539876,-170.24785)"><g
         id="g2"
         clip-path="url(#clipPath2)"><g
           inkscape:label="Clip"
           id="g1"><path
             style="opacity:1;fill:none;fill-opacity:0.100619;fill-rule:nonzero;stroke:none;stroke-width:1.5;stroke-dasharray:none;stroke-opacity:1"
             d="m 386.65647,243.58856 2.95098,4.05253 a 13.266166,13.266166 69.532001 0 1 2.49401,6.6819 l 0.43291,5.07626 a 138.53776,138.53776 86.087876 0 1 0.31751,4.64281 l 0.37738,7.32385 a 2.6339658,2.6339658 43.946541 0 0 2.59173,2.49813 l 8.03196,0.11816 a 593.93149,593.93149 1.1204228 0 1 5.75373,0.11253 l 15.18248,0.37052 a 24.000378,24.000378 7.4639756 0 1 5.02943,0.65892 l 16.65727,4.00827 c 1.34014,0.32248 2.58586,-0.5222 2.75453,-1.89021 0.92535,-7.50479 1.09303,-14.21787 0.4064,-21.83224 -0.29711,-3.29477 -1.3008,-8.56129 -2.15738,-11.75681 -3.35114,-12.50157 -6.2122,-18.30384 -10.18742,-25.18998 -1.56303,-2.70759 -4.30602,-6.9697 -6.24406,-9.42248 -6.43606,-8.14549 -13.79962,-14.73316 -24.45317,-21.56004 -1.25999,-0.80741 -2.69189,-0.29636 -3.18289,1.11731 l -17.45794,50.26382 a 5.1559676,5.1559676 81.545973 0 0 0.70254,4.72675 z"
             id="path36"
             inkscape:path-effect="#path-effect36"
             inkscape:original-d="m 385.06926,241.40888 6.7176,9.22514 0.94526,11.08397 0.624,12.10979 13.37397,0.19675 20.6088,0.50295 21.5635,5.18886 c 1.48103,-10.47025 1.57935,-19.13529 0.0516,-30.25721 -4.81958,-19.93788 -8.29307,-25.26362 -14.5229,-35.88055 -7.72052,-10.94604 -16.22819,-18.95797 -30.13018,-27.54026 z"
             transform="matrix(0.9775908,0,0,0.9775908,9.9514058,4.7009416)"
             sodipodi:nodetypes="ccccccccccc" /></g><rect
           style="opacity:0.5;fill:url(#pattern12);stroke:none;stroke-width:5.5;stroke-opacity:1"
           id="rect1"
           width="64.411537"
           height="91.499092"
           x="386.24435"
           y="186.87469"
           transform="translate(4e-6)" /></g></g></g></svg>
