<?xml version="1.0" encoding="UTF-8" standalone="no"?>
<!-- Created with Inkscape (http://www.inkscape.org/) -->

<svg
   width="124.85348"
   height="124.85347"
   viewBox="0 0 124.85348 124.85347"
   version="1.1"
   id="svg1"
   xml:space="preserve"
   inkscape:version="1.4.3 (0d15f75, 2025-12-25)"
   sodipodi:docname="sector 3 icon.svg"
   inkscape:export-filename="sector 3 icon.png"
   inkscape:export-xdpi="393.67999"
   inkscape:export-ydpi="393.67999"
   xmlns:inkscape="http://www.inkscape.org/namespaces/inkscape"
   xmlns:sodipodi="http://sodipodi.sourceforge.net/DTD/sodipodi-0.dtd"
   xmlns="http://www.w3.org/2000/svg"
   xmlns:svg="http://www.w3.org/2000/svg"><sodipodi:namedview
     id="namedview1"
     pagecolor="#505050"
     bordercolor="#ffffff"
     borderopacity="1"
     inkscape:showpageshadow="0"
     inkscape:pageopacity="0"
     inkscape:pagecheckerboard="1"
     inkscape:deskcolor="#505050"
     inkscape:document-units="px"
     showguides="true"
     inkscape:zoom="1.4142136"
     inkscape:cx="138.94648"
     inkscape:cy="275.06453"
     inkscape:window-width="3440"
     inkscape:window-height="1371"
     inkscape:window-x="0"
     inkscape:window-y="32"
     inkscape:window-maximized="1"
     inkscape:current-layer="layer1"><inkscape:page
       x="0"
       y="0"
       width="124.85348"
       height="124.85347"
       id="page2"
       margin="0"
       bleed="0" /></sodipodi:namedview><defs
     id="defs1" /><g
     inkscape:label="Layer 1"
     inkscape:groupmode="layer"
     id="layer1"
     transform="translate(-35.114154,-231.968)"><g
       id="g46"
       transform="translate(-11,-18.5)"><circle
         style="opacity:1;fill:#ffffff;fill-opacity:1;fill-rule:nonzero;stroke:#ffffff;stroke-width:2.524;stroke-dasharray:none;stroke-opacity:1"
         id="path45"
         cx="108.54089"
         cy="312.89474"
         r="61.164738" /><polygon
         points="67.384,116.153 60.477,102.413 45.255,104.862 56.237,93.951 49.254,80.135 63.024,87.208 74.006,76.297 71.453,91.497 85.183,98.529 69.865,100.881 "
         id="polygon1"
         style="fill:#a64cd6;fill-opacity:1"
         transform="matrix(0.73210058,-0.50222202,0.50222202,0.73210058,-13.469278,294.15719)" /><path
         d="m 79.737635,332.47179 c 3.695533,-15.85193 24.643255,-52.83876 69.050765,-48.44447 -5.20907,0.55349 -10.49359,2.50991 -15.54036,5.7373 6.98205,-2.06046 19.97341,1.81561 24.74937,3.60482 -6.43351,0.77117 -13.90617,2.00973 -20.50969,4.09151 6.56519,1.65565 10.93744,4.5325 15.22945,6.81842 -8.03473,-2.87185 -49.58352,-6.17499 -68.292275,27.10113 z"
         id="path1-3"
         style="fill:#a64cd6;fill-opacity:1;stroke-width:0.887805" /></g></g></svg>
