<?xml version="1.0" encoding="UTF-8" standalone="no"?>
<!-- Created with Inkscape (http://www.inkscape.org/) -->

<svg
   width="116.01463"
   height="116.01463"
   viewBox="0 0 116.01463 116.01463"
   version="1.1"
   id="svg1"
   xml:space="preserve"
   inkscape:version="1.4.3 (0d15f75, 2025-12-25)"
   sodipodi:docname="sector 1 icon.svg"
   inkscape:export-filename="sector 1 icon.png"
   inkscape:export-xdpi="423.67001"
   inkscape:export-ydpi="423.67001"
   xmlns:inkscape="http://www.inkscape.org/namespaces/inkscape"
   xmlns:sodipodi="http://sodipodi.sourceforge.net/DTD/sodipodi-0.dtd"
   xmlns="http://www.w3.org/2000/svg"
   xmlns:svg="http://www.w3.org/2000/svg"><sodipodi:namedview
     id="namedview1"
     pagecolor="#505050"
     bordercolor="#ffffff"
     borderopacity="1"
     inkscape:showpageshadow="0"
     inkscape:pageopacity="0"
     inkscape:pagecheckerboard="1"
     inkscape:deskcolor="#505050"
     inkscape:document-units="px"
     showguides="true"
     inkscape:zoom="1.4142136"
     inkscape:cx="138.94648"
     inkscape:cy="275.06453"
     inkscape:window-width="3440"
     inkscape:window-height="1371"
     inkscape:window-x="0"
     inkscape:window-y="32"
     inkscape:window-maximized="1"
     inkscape:current-layer="layer1"><inkscape:page
       x="0"
       y="0"
       width="116.01463"
       height="116.01463"
       id="page2"
       margin="0"
       bleed="0" /></sodipodi:namedview><defs
     id="defs1" /><g
     inkscape:label="Layer 1"
     inkscape:groupmode="layer"
     id="layer1"
     transform="translate(-28.436486,-105.15759)"><g
       id="g45"><circle
         style="opacity:1;fill:#ffffff;fill-opacity:1;fill-rule:nonzero;stroke:#ffffff;stroke-width:1.90335;stroke-dasharray:none;stroke-opacity:1"
         id="path44"
         cx="86.443802"
         cy="163.1649"
         r="57.055641" /><g
         id="g43"
         transform="matrix(0.78759653,0,0,0.78759653,38.954386,35.866091)"><path
           d="m 60.222656,113.39453 c -6.589533,-1.3e-4 -12.981219,1.28901 -18.998047,3.83399 -4.197721,1.77545 -8.084225,4.10739 -11.609375,6.95312 h 3.355469 c 2.515408,0 4.728646,1.41919 5.777344,3.70313 1.048578,2.28356 0.681449,4.88779 -0.958985,6.79687 l -10.123046,11.81445 c -1.260877,1.48599 -1.957032,3.37043 -1.957032,5.30274 0,2.48583 -0.964866,4.81012 -2.71875,6.54687 -1.732055,1.75072 -4.055251,2.7168 -6.539062,2.7168 h -5.021484 c -0.0085,0.37841 -0.01367,0.75886 -0.01367,1.13867 2.52e-4,6.58953 1.290959,12.98109 3.835937,18.99805 0.04479,0.10609 0.09311,0.21069 0.138672,0.3164 l 1.603516,-3.60937 c 1.640564,-3.67882 5.291886,-6.05664 9.300781,-6.05664 2.548527,0 4.938742,0.8013 6.914062,2.31445 2.165039,1.64869 5.745395,4.03234 10.498047,6.02149 3.551925,1.49056 5.847656,4.87454 5.847656,8.62304 v 3.83203 c 0,2.47785 -0.967329,4.80716 -2.720703,6.56055 -1.540182,1.54018 -2.386718,3.58867 -2.386718,5.76563 v 3.43554 c 5.05874,1.72964 10.349793,2.60547 15.77539,2.60547 6.589662,-2.6e-4 12.981092,-1.29096 18.998047,-3.83594 5.812017,-2.45843 11.031192,-5.97844 15.513672,-10.46093 4.48236,-4.48248 8.003023,-9.70203 10.460933,-15.51367 2.54472,-6.01657 3.83399,-12.40733 3.83399,-18.9961 2.6e-4,-5.90134 -1.03598,-11.64461 -3.08008,-17.10156 -0.88894,0.0774 -1.88981,0.21939 -2.98242,0.42383 -3.057521,0.57282 -6.241431,1.50967 -8.375001,2.19531 -0.74668,0.24022 -1.248047,0.92865 -1.248047,1.71289 0,0.14378 0.01773,0.28968 0.05273,0.43359 0.1991,0.80568 0.91906,1.36914 1.75,1.36914 0.28844,0 0.567268,-0.0684 0.830078,-0.20507 l 0.04883,-0.0254 c 1.15111,-0.58552 2.481643,-0.42585 3.470703,0.41601 1.002107,0.85314 1.374587,2.15807 0.974607,3.40625 -5.229418,16.31907 -11.447505,31.13981 -14.003904,36.01758 -0.830939,1.58346 -2.463413,2.56641 -4.261719,2.56641 -2.667555,0 -4.837891,-2.1702 -4.837891,-4.83789 v -11.9004 c 0,-3.78047 -3.317186,-7.09765 -7.097656,-7.09765 -3.616649,0 -7.141499,-1.55186 -9.671875,-4.25977 -2.550695,-2.72975 -3.873394,-6.37896 -3.626953,-10.01172 0.472071,-6.94967 6.524759,-12.39453 13.777344,-12.39453 h 10.58789 c 0.748461,0 1.492432,-0.34332 2.041016,-0.9414 0.563053,-0.61381 0.848683,-1.39929 0.783203,-2.15625 -0.123474,-1.44855 -1.446282,-2.58203 -3.011719,-2.58203 h -11.40625 c -2.771362,0 -5.256725,-1.43231 -6.648437,-3.83008 -1.393397,-2.40043 -1.402581,-5.27494 -0.02344,-7.68946 l 6.369141,-11.44921 c -3.015394,-0.57574 -6.093914,-0.86537 -9.216797,-0.86524 z"
           style="display:inline;fill:#a64cd6;fill-opacity:1;stroke:#a64cd6;stroke-width:0.327;stroke-dasharray:none;stroke-opacity:1"
           id="path41" /><path
           style="display:inline;fill:#a64cd6;fill-opacity:1;stroke-width:0.380906;stroke-dasharray:none"
           d="m 106.23414,142.76164 c -2.51515,-5.94652 -6.11581,-11.28685 -10.70185,-15.87276 -4.58603,-4.5859 -9.926355,-8.18617 -15.872758,-10.70108 -6.156793,-2.60385 -12.696327,-3.924 -19.437124,-3.92374 -3.72e-4,0 -0.0012,0 -0.0012,0 -6.741048,0 -13.280703,1.32039 -19.437121,3.92438 -5.946405,2.51515 -11.286603,6.11581 -15.87238,10.70184 -4.585655,4.58591 -8.185931,9.92636 -10.700956,15.87289 -2.603989,6.15667 -3.924381,12.6962 -3.924507,19.437 2.52e-4,6.74155 1.320901,13.28159 3.925138,19.43852 2.515282,5.94652 6.115814,11.28685 10.701721,15.87276 4.585903,4.5859 9.926102,8.18617 15.872504,10.70108 6.156542,2.60385 12.695953,3.924 19.436738,3.92374 6.741555,0 13.281595,-1.32077 19.438652,-3.92514 5.946397,-2.51528 11.286843,-6.11582 15.872633,-10.70171 4.58577,-4.58591 8.18617,-9.92611 10.70108,-15.87239 2.60386,-6.15654 3.924,-12.69607 3.92374,-19.43686 0,-6.74105 -1.32039,-13.28185 -3.92437,-19.43853 z M 79.219573,117.228 c 5.811883,2.45805 11.031527,5.97711 15.514147,10.45947 4.4826,4.48248 8.00204,9.70225 10.46022,15.51414 0.11294,0.26699 0.22246,0.53488 0.33045,0.80328 -0.84122,0.0849 -1.76721,0.2213 -2.76464,0.40785 -3.1154,0.58374 -6.34931,1.53549 -8.51384,2.23103 -1.21544,0.39085 -2.0323,1.51125 -2.0323,2.78786 0,0.234 0.0289,0.47017 0.0857,0.70302 0.32449,1.31253 1.49502,2.22913 2.84663,2.22913 0.47168,0 0.92649,-0.11218 1.35212,-0.33349 l 0.0396,-0.0203 c 0.88106,-0.44808 1.72774,-0.15482 2.22582,0.26916 0.50836,0.43272 0.94147,1.23841 0.63272,2.20209 -5.20911,16.25562 -11.391417,30.99452 -13.929416,35.83702 -0.635134,1.21024 -1.884965,1.96213 -3.262214,1.96213 -2.044861,0 -3.708517,-1.66366 -3.708517,-3.70865 v -11.90079 c 0,-2.1021 -0.894773,-4.20356 -2.454885,-5.76557 -1.561878,-1.56366 -3.665371,-2.46059 -5.771272,-2.46059 -3.304982,0 -6.529758,-1.42243 -8.847457,-3.90268 -2.338128,-2.50195 -3.549771,-5.84221 -3.324397,-9.16395 0.431969,-6.3592 5.98815,-11.34065 12.648999,-11.34065 h 10.589282 c 1.064181,0 2.111483,-0.47639 2.87352,-1.30707 0.776373,-0.8463 1.168496,-1.94626 1.075985,-3.01692 -0.172837,-2.02748 -1.990173,-3.6155 -4.137191,-3.6155 H 69.741825 c -2.364141,0 -4.48439,-1.22128 -5.671537,-3.26678 -1.188797,-2.04829 -1.195772,-4.50152 -0.01534,-6.56809 l 6.545243,-11.76742 c 2.942171,0.6373 5.821401,1.54894 8.619411,2.73228 z m -63.968435,25.97513 c 2.45805,-5.81189 5.977108,-11.03165 10.459339,-15.51414 0.82561,-0.82574 1.676728,-1.6181 2.55145,-2.37785 h 4.708616 c 2.06872,0 3.889482,1.1666 4.751765,3.04459 0.862283,1.87773 0.559629,4.01968 -0.790207,5.59056 l -10.125335,11.8168 c -1.435621,1.69195 -2.226206,3.83516 -2.226206,6.03484 0,2.18204 -0.847057,4.22246 -2.389142,5.74958 -1.522291,1.53879 -3.561193,2.38622 -5.740949,2.38622 h -4.982723 c 0.26268,-5.7884 1.531425,-11.40639 3.783392,-16.7306 z m 28.06593,64.79684 c -0.701885,-0.25952 -1.399325,-0.53488 -2.091439,-0.82764 -5.811628,-2.45805 -11.031147,-5.97711 -15.51363,-10.45947 -4.041127,-4.04113 -7.296361,-8.68312 -9.700224,-13.81634 l 2.014916,-4.53147 c 1.458967,-3.27161 4.704306,-5.38563 8.268031,-5.38563 2.298029,0 4.451646,0.71927 6.229516,2.08128 2.218716,1.68942 5.884343,4.13072 10.746767,6.16581 3.130871,1.31392 5.15378,4.29023 5.15378,7.58252 v 3.83149 c 0,2.17608 -0.848202,4.22272 -2.388251,5.7629 -1.753503,1.7535 -2.719339,4.08427 -2.719339,6.56288 v 3.03367 z m 61.877502,-26.8029 c -2.45791,5.81164 -5.9771,11.03128 -10.45946,15.51376 -4.48248,4.48249 -9.702126,8.0018 -15.514143,10.46023 -6.016955,2.54498 -12.408897,3.83567 -18.998559,3.83593 -5.425597,0 -10.717194,-0.87549 -15.775934,-2.60513 v -3.43556 c 0,-2.17696 0.848203,-4.22411 2.388385,-5.76429 1.753374,-1.75339 2.719212,-4.08364 2.719212,-6.56149 v -3.83149 c 0,-3.7485 -2.29486,-7.13355 -5.846785,-8.62411 -4.752652,-1.98915 -8.332753,-4.37309 -10.497792,-6.02178 -1.97532,-1.51315 -4.366497,-2.313 -6.915024,-2.313 -4.008895,0 -7.659166,2.37671 -9.29973,6.05553 l -1.604901,3.60954 c -0.04556,-0.10571 -0.0934,-0.21014 -0.138193,-0.31623 -2.544978,-6.01696 -3.835678,-12.40903 -3.83593,-18.99856 0,-0.37981 0.0048,-0.75887 0.01331,-1.13728 h 5.021426 c 2.483811,0 4.807727,-0.96646 6.539782,-2.71718 1.753884,-1.73675 2.719717,-4.06207 2.719717,-6.5479 0,-1.93231 0.695412,-3.81601 1.956289,-5.302 l 10.12293,-11.81413 c 1.640433,-1.90908 2.008065,-4.5137 0.959487,-6.79726 -1.048698,-2.28394 -3.262721,-3.70256 -5.778129,-3.70256 h -3.355866 c 3.52515,-2.84573 7.411711,-5.17764 11.609432,-6.95309 6.016828,-2.54498 12.40877,-3.8353 18.998303,-3.83517 3.122883,-1.3e-4 6.201341,0.29022 9.216735,0.86596 l -6.368089,11.44891 c -1.379144,2.41452 -1.370897,5.28919 0.0225,7.68962 1.391712,2.39777 3.877046,3.8292 6.648409,3.8292 H 81.14873 c 1.565436,0 2.888369,1.13424 3.011843,2.58279 0.06548,0.75696 -0.219922,1.54311 -0.782975,2.15692 -0.548584,0.59808 -1.292728,0.94122 -2.041188,0.94122 H 70.747111 c -7.252585,0 -13.30367,5.44375 -13.775741,12.39342 -0.246441,3.63276 1.075215,7.28189 3.62591,10.01164 2.530376,2.70791 6.056037,4.26104 9.672686,4.26104 3.78047,0 7.096742,3.31627 7.096742,7.09674 v 11.9008 c 0,2.66769 2.170371,4.83792 4.837926,4.83792 1.798306,0 3.431506,-0.98346 4.262445,-2.56692 2.556399,-4.87777 8.775121,-19.6979 14.004541,-36.01697 0.39998,-1.24818 0.026,-2.55361 -0.97611,-3.40675 -0.98906,-0.84186 -2.31872,-1.00137 -3.46983,-0.41585 l -0.049,0.0252 c -0.26281,0.13668 -0.54237,0.20596 -0.83081,0.20596 -0.83094,0 -1.55072,-0.56369 -1.74982,-1.36937 -0.035,-0.14391 -0.0529,-0.28972 -0.0529,-0.4335 0,-0.78424 0.50176,-1.47254 1.24844,-1.71276 2.13357,-0.68564 5.3185,-1.62331 8.37602,-2.19613 1.09261,-0.20444 2.09296,-0.34631 2.9819,-0.42372 2.0441,5.45695 3.07986,11.19968 3.0796,17.10102 0,6.58877 -1.28981,12.98021 -3.83453,18.99678 z"
           id="path12-86" /></g></g></g></svg>
