<?xml version="1.0" encoding="UTF-8" standalone="no"?>
<!-- Uploaded to: SVG Repo, www.svgrepo.com, Generator: SVG Repo Mixer Tools -->

<svg
   fill="#000000"
   width="517.5"
   height="517.5"
   viewBox="0 0 20.7 20.7"
   version="1.1"
   id="svg1"
   sodipodi:docname="undo.svg"
   inkscape:version="1.4.3 (0d15f75, 2025-12-25)"
   inkscape:export-filename="undo.png"
   inkscape:export-xdpi="94.980003"
   inkscape:export-ydpi="94.980003"
   xml:space="preserve"
   xmlns:inkscape="http://www.inkscape.org/namespaces/inkscape"
   xmlns:sodipodi="http://sodipodi.sourceforge.net/DTD/sodipodi-0.dtd"
   xmlns="http://www.w3.org/2000/svg"
   xmlns:svg="http://www.w3.org/2000/svg"
   xmlns:rdf="http://www.w3.org/1999/02/22-rdf-syntax-ns#"
   xmlns:cc="http://creativecommons.org/ns#"
   xmlns:dc="http://purl.org/dc/elements/1.1/"><defs
     id="defs1" /><sodipodi:namedview
     id="namedview1"
     pagecolor="#404040"
     bordercolor="#000000"
     borderopacity="0.25"
     inkscape:showpageshadow="2"
     inkscape:pageopacity="0.0"
     inkscape:pagecheckerboard="true"
     inkscape:deskcolor="#101010"
     inkscape:zoom="1.1075"
     inkscape:cx="266.81716"
     inkscape:cy="280.81264"
     inkscape:window-width="1810"
     inkscape:window-height="1177"
     inkscape:window-x="1379"
     inkscape:window-y="71"
     inkscape:window-maximized="0"
     inkscape:current-layer="svg1" /><title
     id="title1">pause</title><metadata
     id="metadata1"><rdf:RDF><cc:Work
         rdf:about=""><dc:title>pause</dc:title></cc:Work></rdf:RDF></metadata><circle
     style="fill:#ffffff;stroke:none;stroke-width:0.22;fill-opacity:1"
     id="path2"
     cx="10.349999"
     cy="10.349999"
     r="10.24" /><g
     style="fill:#f28c4c;fill-opacity:1"
     id="g2"
     transform="matrix(0.60407013,0,0,0.60407013,4.8549925,0.64481501)"><path
       d="m 7.75,13.313 v 2.063 c 0,0.438 -0.344,0.625 -0.688,0.375 L 0.281,10.876 c -0.375,-0.25 -0.375,-0.719 0,-0.969 L 7.062,5.001 C 7.406,4.751 7.75,4.907 7.75,5.345 v 2.031 c 1.531,0 4.688,0.188 6.75,1.531 4.719,3.094 7.438,13.219 -8,18.344 0,0 9.313,-4.656 7.688,-11.063 -0.406,-1.719 -2.313,-3.25 -6.438,-2.875 z"
       id="path1"
       style="fill:#f28c4c;fill-opacity:1" /></g></svg>
