<?xml version="1.0" encoding="UTF-8" standalone="no"?>
<svg
   width="512"
   height="512"
   viewBox="0 0 512 512"
   fill="none"
   version="1.1"
   id="svg3"
   sodipodi:docname="Icon.svg"
   inkscape:version="1.4.3 (0d15f75, 2025-12-25)"
   inkscape:export-filename="main-512.png"
   inkscape:export-xdpi="96"
   inkscape:export-ydpi="96"
   xmlns:inkscape="http://www.inkscape.org/namespaces/inkscape"
   xmlns:sodipodi="http://sodipodi.sourceforge.net/DTD/sodipodi-0.dtd"
   xmlns="http://www.w3.org/2000/svg"
   xmlns:svg="http://www.w3.org/2000/svg">
  <sodipodi:namedview
     id="namedview3"
     pagecolor="#505050"
     bordercolor="#ffffff"
     borderopacity="1"
     inkscape:showpageshadow="0"
     inkscape:pageopacity="0"
     inkscape:pagecheckerboard="1"
     inkscape:deskcolor="#505050"
     showguides="true"
     inkscape:zoom="1.2236262"
     inkscape:cx="239.04359"
     inkscape:cy="288.89542"
     inkscape:window-width="1664"
     inkscape:window-height="1140"
     inkscape:window-x="155"
     inkscape:window-y="99"
     inkscape:window-maximized="0"
     inkscape:current-layer="svg3">
    <sodipodi:guide
       position="84.948081,468.08126"
       orientation="1,0"
       id="guide3"
       inkscape:locked="false" />
    <sodipodi:guide
       position="426.97968,471.80248"
       orientation="1,0"
       id="guide4"
       inkscape:locked="false" />
    <sodipodi:guide
       position="139.55756,426.97968"
       orientation="0,-1"
       id="guide5"
       inkscape:locked="false" />
    <sodipodi:guide
       position="95.438665,85.003274"
       orientation="0,-1"
       id="guide6"
       inkscape:locked="false" />
  </sodipodi:namedview>
  <path
     d="M 0,0 H 512 V 512 H 0 Z"
     fill="url(#paint0_linear_348_302)"
     id="path1"
     style="display:inline"
     inkscape:export-filename="background-xxxhdpi432.png"
     inkscape:export-xdpi="81"
     inkscape:export-ydpi="81" />
  <path
     d="m 120.84653,426.98821 c 0,0 0,0 0,0 12.42203,-11.71413 25.58779,-22.39452 39.61379,-31.64689 54.44301,-37.90067 128.8538,-45.43665 183.23327,-14.5889 9.85925,5.93201 20.02318,-7.46918 11.6848,-15.3978 -26.85045,-26.8643 -54.11309,-59.95794 -41.89553,-91.43457 11.82818,-31.79759 43.63228,-58.32382 73.07483,-83.17195 11.96178,-9.88614 -1.70498,-29.18594 -15.00354,-21.18726 -5.09947,3.05316 -10.10038,5.86032 -15.22021,8.46952 -67.95581,45.16539 -126.84171,-29.87347 -170.6084,-88.524932 -6.9568,-9.919131 -22.22996,-1.917843 -18.09907,9.471261 10.78466,28.484731 22.30328,58.471671 18.24406,86.242641 -3.84659,28.07154 -33.28669,45.13116 -61.12201,57.13366 -3.99201,1.4158 -3.91063,6.11041 0.0106,7.71113 11.68644,3.92724 23.31259,8.02393 33.50013,14.3999 14.36081,8.31068 22.36437,24.35692 25.09333,41.09314 -0.94495,-16.73459 -7.56287,-34.7196 -22.24625,-45.14583 -10.26168,-7.81377 -21.90169,-13.06558 -33.41867,-18.06241 l 0.0106,7.71112 c 28.6825,-9.85518 64.6892,-24.9638 73.16443,-61.7069 7.05699,-34.78804 -4.35166,-66.38767 -13.88182,-96.448108 l -18.09906,9.471258 c 22.19005,32.44179 44.58294,64.8593 77.2041,91.28941 31.16627,29.40507 87.63277,29.95004 122.07622,8.59416 5.78293,-2.94727 11.28972,-6.05746 16.81198,-9.39004 l -15.00354,-21.18726 c -30.22213,26.36331 -63.73855,52.09529 -79.50212,95.8628 -15.30902,49.59361 23.74433,87.16681 51.53565,112.92487 l 11.6848,-15.39782 c -65.78321,-32.9242 -144.38029,-16.16109 -196.14484,27.26591 -13.37677,10.71622 -25.52997,22.73421 -36.69749,35.64989 z"
     fill="#ffffff"
     id="path2"
     style="display:inline;stroke-width:0.814613" />
  <defs
     id="defs3">
    <linearGradient
       id="paint0_linear_348_302"
       x1="256"
       y1="0"
       x2="256"
       y2="512"
       gradientUnits="userSpaceOnUse">
      <stop
         stop-color="#F3783A"
         id="stop2" />
      <stop
         offset="1"
         stop-color="#FBB250"
         id="stop3" />
    </linearGradient>
  </defs>
</svg>
